<svg xmlns="http://www.w3.org/2000/svg">
	<symbol id="phone-painted-white">
		<path d="M4.03738 0.482295L5.90542 2.34683C6.62853 3.06858 6.62853 3.91063 5.90542 4.57223L4.51945 5.95559C5.12205 8.66217 7.35165 10.8274 10.0031 11.4289L11.389 10.0455C12.1121 9.38392 12.9558 9.38392 13.6186 10.0455L15.4867 11.9702C16.1495 12.5717 16.1495 13.4137 15.6072 14.0753L14.0404 16C5.60412 16 0 10.4064 0 1.98595L1.9283 0.422149C2.59115 -0.179313 3.43479 -0.119166 4.03738 0.482295Z" fill="white" />
	</symbol>
	<symbol id="select-btn" fill="none">
		<path d="M15.1406 14.1025H14.9542V3.62269C14.9542 3.45009 14.8142 3.31019 14.6417 3.31019H10.5264V0.3125C10.5264 0.139906 10.3865 0 10.2139 0H1.35834C1.18575 0 1.04584 0.139906 1.04584 0.3125V14.1025H0.859375C0.686781 14.1025 0.546875 14.2424 0.546875 14.415V15.6875C0.546875 15.8601 0.686781 16 0.859375 16H15.1406C15.3132 16 15.4531 15.8601 15.4531 15.6875V14.415C15.4531 14.2424 15.3132 14.1025 15.1406 14.1025ZM10.5264 3.93519H14.3292V14.1025H10.5264V3.93519ZM1.67084 0.625H9.90141V3.62269V14.1025H6.09859V3.12828C6.09859 2.95569 5.95869 2.81578 5.78609 2.81578C5.6135 2.81578 5.47359 2.95569 5.47359 3.12828V14.1025H1.67084V0.625ZM14.8281 15.375H1.17188V14.7275H10.2139H14.8281V15.375Z" fill="#14451F" />
	</symbol>
	<symbol id="humburger">
		<rect width="22" height="2" rx="1" fill="white" />
		<rect y="5" width="22" height="2" rx="1" fill="white" />
		<rect x="5" y="10" width="17" height="2" rx="1" fill="white" />
	</symbol>
	<symbol id="shops" fill="none">
		<rect x="0.264984" y="0.230225" width="39.4385" height="39.4385" rx="4.19558" fill="#4285F4" />
		<g clip-path="url(#clip0)">
			<rect x="9.81281" y="8.50108" width="21.1781" height="4.55558" stroke="white" stroke-width="0.559035" />
			<path d="M12.9135 18.0214C12.9135 19.4407 11.7629 20.5913 10.3435 20.5913C8.92414 20.5913 7.77353 19.4407 7.77353 18.0214" stroke="white" stroke-width="0.698794" />
			<path d="M17.9646 18.0214C17.9646 19.4407 16.814 20.5913 15.3946 20.5913C13.9753 20.5913 12.8246 19.4407 12.8246 18.0214" stroke="white" stroke-width="0.698794" />
			<path d="M23.0159 18.0214C23.0159 19.4407 21.8653 20.5913 20.446 20.5913C19.0266 20.5913 17.876 19.4407 17.876 18.0214" stroke="white" stroke-width="0.698794" />
			<path d="M28.0675 18.0214C28.0675 19.4407 26.9169 20.5913 25.4976 20.5913C24.0782 20.5913 22.9276 19.4407 22.9276 18.0214" stroke="white" stroke-width="0.698794" />
			<path d="M33.1187 18.0214C33.1187 19.4407 31.9681 20.5913 30.5487 20.5913C29.1293 20.5913 27.9787 19.4407 27.9787 18.0214" stroke="white" stroke-width="0.698794" />
			<path d="M9.63428 20.4122V31.6669H31.2575V20.4122" stroke="white" stroke-width="0.698794" />
			<path d="M27.2699 31.4898V23.9572H23.1047V31.4898" stroke="white" stroke-width="0.698794" />
			<path d="M9.63448 28.2109L18.7623 28.2109L18.7623 23.9572L9.63448 23.9572" stroke="white" stroke-width="0.698794" />
			<path d="M17.1229 12.3942H9.63451L7.72919 17.7113H16.3253M17.1229 12.3942L16.3253 17.7113M17.1229 12.3942H23.5921M16.3253 17.7113H24.7441M24.7441 17.7113H33.0301L30.9475 12.3942H23.5921M24.7441 17.7113L23.5921 12.3942" stroke="white" stroke-width="0.698794" />
			<path d="M15.129 24.0033L13.5781 28.39" stroke="white" stroke-width="0.698794" />
		</g>
		<defs>
			<clipPath id="clip0">
				<rect width="26.8517" height="26.8517" fill="white" transform="translate(6.97592 6.94312)" />
			</clipPath>
		</defs>
	</symbol>
	<symbol id="cars" fill="none">
		<rect x="0.264984" y="0.280762" width="39.4385" height="39.4385" rx="4.19558" fill="#4285F4" />
		<g clip-path="url(#clip0)">
			<path d="M20.4018 6.99365C17.7464 6.99365 15.1506 7.78107 12.9428 9.25632C10.7349 10.7316 9.01405 12.8284 7.99788 15.2817C6.98171 17.7349 6.71583 20.4344 7.23387 23.0388C7.75191 25.6431 9.0306 28.0354 10.9082 29.913C12.7859 31.7907 15.1781 33.0694 17.7825 33.5874C20.3869 34.1055 23.0864 33.8396 25.5396 32.8234C27.9929 31.8072 30.0897 30.0864 31.565 27.8785C33.0402 25.6707 33.8276 23.0749 33.8276 20.4195C33.8236 16.86 32.4078 13.4474 29.8909 10.9304C27.3739 8.41344 23.9613 6.99765 20.4018 6.99365V6.99365ZM20.4018 31.6077C18.1889 31.6077 16.0258 30.9516 14.1859 29.7222C12.346 28.4928 10.912 26.7455 10.0652 24.7011C9.21838 22.6567 8.99682 20.4071 9.42852 18.2368C9.86022 16.0665 10.9258 14.073 12.4905 12.5083C14.0552 10.9436 16.0487 9.87798 18.2191 9.44628C20.3894 9.01458 22.6389 9.23614 24.6833 10.083C26.7277 10.9298 28.4751 12.3638 29.7044 14.2037C30.9338 16.0436 31.59 18.2067 31.59 20.4195C31.5866 23.3858 30.4068 26.2296 28.3093 28.3271C26.2118 30.4245 23.368 31.6044 20.4018 31.6077Z" fill="white" />
			<path d="M22.08 14.8258H18.1641C17.8674 14.8258 17.5828 14.9437 17.373 15.1535C17.1632 15.3633 17.0453 15.6479 17.0453 15.9446V27.1329H19.2829V22.6576H22.08C23.1185 22.6576 24.1146 22.245 24.8489 21.5106C25.5833 20.7763 25.9959 19.7802 25.9959 18.7417C25.9959 17.7031 25.5833 16.7071 24.8489 15.9727C24.1146 15.2384 23.1185 14.8258 22.08 14.8258ZM22.08 20.4199H19.2829V17.0635H22.08C22.5251 17.0635 22.9519 17.2403 23.2667 17.555C23.5814 17.8697 23.7582 18.2966 23.7582 18.7417C23.7582 19.1868 23.5814 19.6136 23.2667 19.9284C22.9519 20.2431 22.5251 20.4199 22.08 20.4199Z" fill="white" />
		</g>
		<defs>
			<clipPath id="clip0">
				<rect width="26.8517" height="26.8517" fill="white" transform="translate(6.97592 6.99365)" />
			</clipPath>
		</defs>
	</symbol>
	<symbol id="doors" fill="none">
		<rect x="0.74762" y="0.331177" width="39.4385" height="39.4385" rx="4.19558" fill="#4285F4" />
		<g clip-path="url(#clip0)">
			<path d="M29.2848 7.04419H12.4921C12.2025 7.04419 11.9677 7.27898 11.9677 7.56864V33.3715C11.9677 33.6611 12.2025 33.8959 12.4921 33.8959H29.2848C29.5745 33.8959 29.8093 33.6611 29.8093 33.3715V7.56864C29.8093 7.27898 29.5745 7.04419 29.2848 7.04419ZM28.7604 32.847H13.0166V23.0028H13.7851V31.5385C13.7851 31.8281 14.0198 32.063 14.3095 32.063H16.3594H20.8885H25.4176H27.4674C27.7571 32.063 27.9919 31.8281 27.9919 31.5385V9.40158C27.9919 9.11198 27.7571 8.87714 27.4674 8.87714H14.3095C14.0198 8.87714 13.7851 9.11198 13.7851 9.40158V21.9539H13.0166V8.09309H28.7604V32.847ZM25.4176 24.9304H20.8885H16.3594C16.0698 24.9304 15.835 25.1653 15.835 25.4549V31.0141H14.834V23.0028H23.764C24.0536 23.0028 24.2884 22.7679 24.2884 22.4783C24.2884 22.1887 24.0536 21.9539 23.7639 21.9539H14.8339V9.92603H26.943V31.0141H25.9421V25.4549C25.9421 25.1653 25.7073 24.9304 25.4176 24.9304ZM24.8931 25.9793V31.0141H21.4129V25.9793H24.8931ZM20.364 25.9793V31.0141H16.8839V25.9793H20.364Z" fill="white" />
			<path d="M26.0428 22.3761C26.0365 22.3426 26.026 22.3095 26.0129 22.2781C25.9998 22.2461 25.9836 22.2157 25.9647 22.1874C25.9458 22.1585 25.9238 22.1317 25.8997 22.1076C25.8755 22.0835 25.8488 22.0615 25.8199 22.0425C25.7916 22.0237 25.7612 22.0074 25.7292 21.9943C25.6977 21.9812 25.6647 21.9712 25.6311 21.9644C25.4607 21.9298 25.2798 21.9859 25.1581 22.1076C25.134 22.1317 25.1119 22.1584 25.0931 22.1873C25.0742 22.2156 25.0579 22.246 25.0448 22.278C25.0317 22.3095 25.0212 22.3425 25.0149 22.3761C25.0081 22.4096 25.0044 22.4443 25.0044 22.4783C25.0044 22.6168 25.0605 22.7516 25.1581 22.8491C25.2556 22.9472 25.3909 23.0028 25.5289 23.0028C25.563 23.0028 25.5976 22.9996 25.6311 22.9928C25.6647 22.986 25.6977 22.9761 25.7292 22.963C25.7612 22.9499 25.7916 22.9336 25.8199 22.9147C25.8488 22.8953 25.8755 22.8733 25.8997 22.8491C25.9972 22.7516 26.0533 22.6168 26.0533 22.4784C26.0533 22.4443 26.0496 22.4096 26.0428 22.3761Z" fill="white" />
			<path d="M25.4173 10.8842H16.3592C16.0695 10.8842 15.8347 11.119 15.8347 11.4086V20.4668C15.8347 20.7564 16.0695 20.9913 16.3592 20.9913H25.4174C25.707 20.9912 25.9418 20.7564 25.9418 20.4668V11.4086C25.9418 11.119 25.707 10.8842 25.4173 10.8842ZM20.3638 19.9423H16.8836V16.4621H20.3638V19.9423ZM20.3638 15.4132H16.8836V11.9331H20.3638V15.4132ZM24.8929 19.9423H21.4127V16.4621H24.8929V19.9423ZM24.8929 15.4132H21.4127V11.9331H24.8929V15.4132Z" fill="white" />
		</g>
		<defs>
			<clipPath id="clip0">
				<rect width="26.8517" height="26.8517" fill="white" transform="translate(7.46246 7.04419)" />
			</clipPath>
		</defs>
	</symbol>
	<symbol id="phone-blue" fill="none">
		<path d="M5.54205 1.54258L7.6436 3.64018C8.4571 4.45215 8.4571 5.39945 7.6436 6.14376L6.08439 7.70004C6.7623 10.7449 9.2706 13.1809 12.2534 13.8575L13.8127 12.3012C14.6262 11.5569 15.5752 11.5569 16.321 12.3012L18.4225 14.4665C19.1682 15.1431 19.1682 16.0904 18.5581 16.8347L16.7955 19C7.30464 19 1 12.7072 1 3.23419L3.16934 1.47492C3.91505 0.798273 4.86413 0.865938 5.54205 1.54258Z" stroke="#4285F4" stroke-width="1.29091" />
	</symbol>
	<symbol id="address" fill="none">
		<path d="M17 9C17 13.4183 9 23.5 9 23.5C9 23.5 1 13.4183 1 9C1 4.58172 4.58172 1 9 1C13.4183 1 17 4.58172 17 9Z" stroke="#4285F4" stroke-width="2" />
		<circle cx="9" cy="9" r="3.5" stroke="#4285F4" />
	</symbol>
	<symbol id="phone-white" fill="none">
		<path d="M6.31234 2.42403L8.77029 4.87736C9.72175 5.82703 9.72175 6.93499 8.77029 7.80552L6.94665 9.62574C7.73954 13.187 10.6732 16.036 14.1619 16.8274L15.9856 15.0072C16.937 14.1367 18.0471 14.1367 18.9192 15.0072L21.3772 17.5397C22.2494 18.3311 22.2494 19.4391 21.5358 20.3096L19.4743 22.8421C8.37385 22.8421 1 15.4821 1 4.40252L3.53724 2.34489C4.40941 1.55349 5.51945 1.63263 6.31234 2.42403Z" stroke="white" stroke-width="1.69856" />
	</symbol>
	<symbol id="mail" fill="none">
		<rect x="1" y="1" width="16.0013" height="12.001" rx="1.55556" stroke="#4285F4" stroke-width="1.55556" />
		<path d="M3.85794 4.33337L8.25161 7.19591C8.77793 7.53882 9.45885 7.53151 9.97769 7.17738L14.1445 4.33337" stroke="#4285F4" stroke-width="1.55556" stroke-linecap="round" />
	</symbol>
	<symbol id="document" fill="none">
		<g clip-path="url(#clip0)">
			<path d="M19.9776 4.27919L15.9345 0.236093C15.8592 0.160617 15.7696 0.100966 15.6709 0.0606459C15.5734 0.0207997 15.469 0.000189519 15.3637 0H4.85168C3.51193 0 2.42584 1.08608 2.42584 2.42584V20.2153C2.42584 21.5551 3.51193 22.6412 4.85168 22.6412H17.7895C19.1292 22.6412 20.2153 21.5551 20.2153 20.2153V4.85167C20.2142 4.63704 20.1288 4.43146 19.9776 4.27919ZM16.1722 2.76062L17.4547 4.04309H16.1722V2.76062ZM18.5981 20.2153C18.5981 20.6619 18.236 21.024 17.7894 21.024H4.85168C4.40508 21.024 4.04305 20.6619 4.04305 20.2153V2.42584C4.04305 1.97924 4.40508 1.61721 4.85168 1.61721H14.555V4.85167C14.555 5.29827 14.9171 5.6603 15.3637 5.6603H18.5981V20.2153H18.5981Z" fill="#4285F4" />
		</g>
		<defs>
			<clipPath id="clip0">
				<rect width="22.6412" height="22.6412" fill="white" />
			</clipPath>
		</defs>
	</symbol>
	<symbol id="close" fill="none">
		<rect x="14.1421" width="3" height="20" rx="1.5" transform="rotate(45 14.1421 0)" fill="white" />
		<rect x="16.2637" y="14.1421" width="3" height="20" rx="1.5" transform="rotate(135 16.2637 14.1421)" fill="white" />
	</symbol>
	<symbol id="howbuy-easy">
		<path d="M13.4174 53.6488L24.4977 42.5686V39.1963C16.7897 39.4372 1.85547 36.3058 1.85547 21.8532C1.85547 2.96867 16.9503 0.977441 24.4977 2.3424V23.0576H43.7676M48.3443 26.6708V23.0576H43.7676M43.7676 23.0576C46.2567 20.1672 52.391 14.4344 57.0158 14.6271C62.7967 14.868 62.7967 24.262 57.9793 23.0576C55.8596 22.0941 55.0085 20.8898 54.8479 20.4081M13.4174 44.7364C16.3882 44.5758 22.3298 45.989 22.3298 52.9262C22.3298 59.8634 16.3882 62.0794 13.4174 62.3203C10.527 62.24 4.74596 60.2488 4.74596 52.9262C5.14742 50.1963 7.44376 44.7364 13.4174 44.7364Z" stroke-width="2.8905" stroke-linecap="round" />
		<path d="M41.5988 55.3373V46.6657M41.5988 46.6657V36.7899C45.1316 36.0673 52.1973 35.971 52.1973 41.3666C52.1973 46.7621 45.1316 47.1475 41.5988 46.6657ZM38.2266 52.2058H49.0659" stroke-width="2.8905" stroke-linecap="round" />
		<circle cx="44.4907" cy="45.9409" r="17.8247" stroke-width="2.8905" />
	</symbol>
	<symbol id="howbuy-pay">
		<g clip-path="url(#clip0)">
			<path d="M58.6032 32.0339H56.6065V21.1325C56.6065 20.4935 56.0882 19.9752 55.4492 19.9752H53.9788C54.161 19.6028 54.1369 19.145 53.8765 18.7864L40.5999 0.494765C40.4193 0.246072 40.1472 0.0793117 39.8437 0.0314014C39.5402 -0.0166245 39.2299 0.0583654 38.9815 0.239591L35.1183 3.05738L33.2581 0.494765C33.0774 0.246072 32.8054 0.0793117 32.5018 0.0314014C32.1984 -0.0166245 31.888 0.0583654 31.6396 0.239591L4.49101 20.0631C2.2265 20.4951 0.50914 22.4889 0.50914 24.8774V54.332C0.50914 57.035 2.70815 59.2341 5.41114 59.2341H55.4491C56.0881 59.2341 56.6063 58.7159 56.6063 58.0768V47.0763H58.6032C59.2422 47.0763 59.7604 46.5582 59.7604 45.9191V33.1912C59.7604 32.552 59.2422 32.0339 58.6032 32.0339ZM39.4082 2.79307L51.3252 19.2115L50.2781 19.9752H42.7594C42.3139 18.8244 42.4913 17.4911 43.2652 16.4975L43.4979 16.1988C43.8153 15.7914 43.8243 15.2229 43.5199 14.8057L41.2123 11.6421C40.9079 11.2248 40.3636 11.06 39.8791 11.2375L39.5235 11.368C38.141 11.8747 36.5656 11.4666 35.6043 10.3518L35.302 10.0012C34.9084 9.54482 34.2304 9.46705 33.7437 9.82198L19.8237 19.9752H15.882L39.4082 2.79307ZM40.3466 19.9752H23.7513L34.2715 12.3015C35.7517 13.6924 37.8785 14.2261 39.8432 13.6926L41.1489 15.4827C40.2828 16.8188 40.0075 18.4502 40.3466 19.9752ZM2.82364 24.8774C2.82364 23.5513 3.8264 22.4556 5.11338 22.3073C5.14972 22.3032 5.18617 22.2999 5.22263 22.2973C5.23559 22.2963 5.24843 22.2951 5.26139 22.2944C5.31162 22.2915 5.36161 22.2897 5.41114 22.2897H6.67741V51.3174H2.82364V24.8774ZM6.67752 56.9197H5.41114C3.98437 56.9197 2.82364 55.7589 2.82364 54.332V53.6319H6.67752V56.9197ZM32.0665 2.79307L33.2484 4.4212L11.9544 19.9752H8.53943L32.0665 2.79307ZM54.292 56.9197H8.99214V53.6321H44.5389C45.1779 53.6321 45.6961 53.1138 45.6961 52.4748C45.6961 51.8358 45.1779 51.3176 44.5389 51.3176H8.99214V22.2897H54.292V25.1014H16.9707C16.3317 25.1014 15.8134 25.6195 15.8134 26.2587C15.8134 26.8977 16.3317 27.4159 16.9707 27.4159H54.292V32.0338H36.2616C35.6226 32.0338 35.1044 32.552 35.1044 33.1911V45.919V45.9191C35.1044 46.5582 35.6226 47.0763 36.2616 47.0763H54.2918V56.9197H54.292ZM57.4459 44.762L37.419 44.7618V34.3484H57.4459V44.762Z" />
			<path d="M43.6652 34.9543C41.1285 34.9543 39.0646 37.0182 39.0646 39.555C39.0646 42.0917 41.1285 44.1555 43.6652 44.1555C46.2019 44.1555 48.2657 42.0917 48.2657 39.555C48.2657 37.0182 46.2019 34.9543 43.6652 34.9543ZM43.6652 41.8411C42.4046 41.8411 41.3791 40.8157 41.3791 39.5551C41.3791 38.2945 42.4046 37.269 43.6652 37.269C44.9258 37.269 45.9512 38.2945 45.9512 39.5551C45.9512 40.8157 44.9257 41.8411 43.6652 41.8411Z" />
			<path d="M49.4454 52.2488C49.4304 52.1746 49.4084 52.1017 49.3795 52.0311C49.3506 51.9617 49.3147 51.8945 49.273 51.832C49.2302 51.7684 49.1828 51.7095 49.1284 51.6561C48.9131 51.4409 48.6145 51.317 48.3102 51.317C48.0058 51.317 47.7084 51.4408 47.4921 51.6561C47.4389 51.7094 47.3902 51.7684 47.3486 51.832C47.307 51.8945 47.2711 51.9617 47.2422 52.0311C47.2132 52.1017 47.1912 52.1746 47.1762 52.2488C47.1611 52.3228 47.153 52.3992 47.153 52.4743C47.153 52.5495 47.1611 52.626 47.1762 52.7C47.1912 52.7742 47.2132 52.847 47.2422 52.9175C47.2711 52.9871 47.307 53.0542 47.3486 53.1167C47.3902 53.1804 47.4389 53.2394 47.4921 53.2926C47.7084 53.5079 48.0059 53.6317 48.3102 53.6317C48.6145 53.6317 48.9131 53.508 49.1284 53.2926C49.1828 53.2394 49.2302 53.1804 49.273 53.1167C49.3147 53.0542 49.3506 52.9871 49.3795 52.9175C49.4084 52.8471 49.4304 52.7742 49.4454 52.7C49.4605 52.6259 49.4673 52.5495 49.4673 52.4743C49.4673 52.3992 49.4604 52.3227 49.4454 52.2488Z" />
			<path d="M13.1986 24.9773C12.5595 24.9773 12.0413 25.4954 12.0413 26.1345V26.2585C12.0413 26.8975 12.5595 27.4157 13.1986 27.4157C13.8376 27.4157 14.3558 26.8975 14.3558 26.2585V26.1345C14.3558 25.4955 13.8377 24.9773 13.1986 24.9773Z" />
		</g>
		<defs>
			<clipPath id="clip0">
				<rect width="59.2513" height="59.2513" fill="white" transform="translate(0.509277)" />
			</clipPath>
		</defs>
	</symbol>
	<symbol id="howbuy-analysis">
		<path fill-rule="evenodd" clip-rule="evenodd" d="M13.0435 39.1403V65.4084C13.0435 65.8361 13.3901 66.1827 13.8178 66.1827H59.5069C59.9345 66.1827 60.2812 65.8361 60.2812 65.4084V41.0365H62.6851V65.4084C62.6851 67.1637 61.2622 68.5867 59.5069 68.5867H13.8178C12.0625 68.5867 10.6395 67.1637 10.6395 65.4084V39.1403H13.0435Z" />
		<path fill-rule="evenodd" clip-rule="evenodd" d="M37.0047 3.79104C36.3463 3.10278 35.3016 3.10278 34.6431 3.79104L3.03502 36.8283C2.34785 37.5465 2.34785 38.7321 3.03502 39.4503L5.14627 41.6571C5.80475 42.3453 6.84941 42.3453 7.50789 41.6571L35.8236 12.0611L64.1408 41.6587C64.7993 42.347 65.844 42.347 66.5025 41.6587L68.6137 39.452C69.3009 38.7338 69.3009 37.5482 68.6137 36.83L39.147 6.03094L39.1394 6.02271L39.116 5.9978L37.0047 3.79104ZM32.9061 2.12918C34.5112 0.451484 37.1366 0.451489 38.7417 2.12918L40.8529 4.33584C40.8685 4.35211 40.8838 4.36838 40.8989 4.38463L70.3507 35.1681C71.9271 36.8158 71.9271 39.4662 70.3507 41.1139L68.2395 43.3206C66.6343 44.9983 64.009 44.9983 62.4038 43.3206L35.8236 15.5385L9.24488 43.3189C7.63976 44.9966 5.0144 44.9966 3.40928 43.3189L1.29803 41.1122C-0.278399 39.4645 -0.278401 36.8141 1.29803 35.1664L32.9061 2.12918Z" />
		<path d="M26.6817 57.279C25.9279 56.8346 25.7677 55.8124 26.3495 55.1587L43.0211 36.4248C43.4559 35.9362 44.1726 35.8166 44.7425 36.1377C45.5155 36.5731 45.6886 37.6112 45.0987 38.2739L28.425 57.006C27.9838 57.5017 27.2535 57.6161 26.6817 57.279Z" />
		<path fill-rule="evenodd" clip-rule="evenodd" d="M41.7975 55.8489C43.4623 55.8489 44.8118 54.4994 44.8118 52.8347C44.8118 51.17 43.4623 49.8205 41.7975 49.8205C40.1328 49.8205 38.7833 51.17 38.7833 52.8347C38.7833 54.4994 40.1328 55.8489 41.7975 55.8489ZM41.7975 57.97C44.6337 57.97 46.9329 55.6709 46.9329 52.8347C46.9329 49.9985 44.6337 47.6993 41.7975 47.6993C38.9614 47.6993 36.6622 49.9985 36.6622 52.8347C36.6622 55.6709 38.9614 57.97 41.7975 57.97Z" />
		<path fill-rule="evenodd" clip-rule="evenodd" d="M29.8149 42.1546C31.4796 42.1546 32.8291 40.8051 32.8291 39.1404C32.8291 37.4757 31.4796 36.1262 29.8149 36.1262C28.1502 36.1262 26.8007 37.4757 26.8007 39.1404C26.8007 40.8051 28.1502 42.1546 29.8149 42.1546ZM29.8149 44.2758C32.651 44.2758 34.9502 41.9766 34.9502 39.1404C34.9502 36.3042 32.651 34.0051 29.8149 34.0051C26.9787 34.0051 24.6795 36.3042 24.6795 39.1404C24.6795 41.9766 26.9787 44.2758 29.8149 44.2758Z" />
	</symbol>
	<symbol id="howbuy-installment">
		<path fill-rule="evenodd" clip-rule="evenodd" d="M46.0012 49.2987C46.0011 49.2987 46.0018 49.2971 46.0038 49.294C46.0023 49.2972 46.0013 49.2988 46.0012 49.2987ZM46.1328 49.1646C46.1818 49.1245 46.248 49.0758 46.3366 49.0192C46.747 48.7573 47.4202 48.4765 48.3589 48.223C50.2191 47.7207 52.8559 47.3954 55.8157 47.3954C58.7754 47.3954 61.4123 47.7207 63.2724 48.223C64.2112 48.4765 64.8844 48.7573 65.2948 49.0192C65.3834 49.0758 65.4495 49.1245 65.4986 49.1646C65.4495 49.2046 65.3834 49.2533 65.2948 49.3099C64.8844 49.5718 64.2112 49.8526 63.2724 50.1061C61.4123 50.6084 58.7754 50.9337 55.8157 50.9337C52.8559 50.9337 50.2191 50.6084 48.3589 50.1061C47.4202 49.8526 46.747 49.5718 46.3366 49.3099C46.248 49.2533 46.1818 49.2046 46.1328 49.1646ZM65.6302 49.2987C65.6301 49.2988 65.6291 49.2972 65.6275 49.294C65.6295 49.2971 65.6303 49.2987 65.6302 49.2987ZM65.6275 49.0351C65.6291 49.0319 65.6301 49.0304 65.6302 49.0304C65.6303 49.0304 65.6295 49.032 65.6275 49.0351ZM46.0038 49.0351C46.0018 49.032 46.0011 49.0304 46.0012 49.0304C46.0013 49.0304 46.0023 49.0319 46.0038 49.0351ZM47.7345 45.9104C49.8508 45.339 52.7075 45.0001 55.8157 45.0001C58.9239 45.0001 61.7805 45.339 63.8969 45.9104C64.9464 46.1938 65.8821 46.5523 66.5837 47.0002C67.229 47.4122 68.0003 48.1149 68.0003 49.1646C68.0003 50.2142 67.229 50.9169 66.5837 51.3289C65.8821 51.7768 64.9464 52.1353 63.8969 52.4187C61.7805 52.9902 58.9239 53.329 55.8157 53.329C52.7075 53.329 49.8508 52.9902 47.7345 52.4187C46.685 52.1353 45.7492 51.7768 45.0476 51.3289C44.4024 50.9169 43.631 50.2142 43.631 49.1646C43.631 48.1149 44.4024 47.4122 45.0476 47.0002C45.7492 46.5523 46.685 46.1938 47.7345 45.9104Z" />
		<path fill-rule="evenodd" clip-rule="evenodd" d="M46.0184 55.3075C45.9649 54.6955 45.4512 54.2154 44.8253 54.2154C44.1638 54.2154 43.6276 54.7516 43.6276 55.4131C43.6276 56.4627 44.399 57.1655 45.0442 57.5774C45.7458 58.0253 46.6816 58.3838 47.7311 58.6672C49.8474 59.2387 52.7041 59.5776 55.8123 59.5776C58.9204 59.5776 61.7771 59.2387 63.8935 58.6672C64.943 58.3838 65.8787 58.0253 66.5803 57.5774C67.2256 57.1655 67.9969 56.4627 67.9969 55.4131C67.9969 54.7516 67.4607 54.2154 66.7992 54.2154C66.1734 54.2154 65.6596 54.6955 65.6061 55.3075C65.5714 55.349 65.4851 55.4347 65.2913 55.5584C64.881 55.8204 64.2077 56.1012 63.269 56.3547C61.4088 56.857 58.772 57.1822 55.8123 57.1822C52.8525 57.1822 50.2157 56.857 48.3555 56.3547C47.4168 56.1012 46.7435 55.8204 46.3332 55.5584C46.1395 55.4347 46.0531 55.349 46.0184 55.3075ZM65.6268 55.2789C65.6269 55.2789 65.6261 55.2805 65.6241 55.2836C65.6256 55.2805 65.6266 55.2789 65.6268 55.2789ZM46.0004 55.2836C45.9984 55.2805 45.9976 55.2789 45.9978 55.2789C45.9979 55.2789 45.9989 55.2805 46.0004 55.2836Z" />
		<path fill-rule="evenodd" clip-rule="evenodd" d="M46.0184 60.8505C45.9649 60.2385 45.4512 59.7584 44.8253 59.7584C44.1638 59.7584 43.6276 60.2946 43.6276 60.9561C43.6276 62.0057 44.399 62.7085 45.0442 63.1204C45.7458 63.5683 46.6816 63.9268 47.7311 64.2102C49.8474 64.7817 52.7041 65.1206 55.8123 65.1206C58.9204 65.1206 61.7771 64.7817 63.8935 64.2102C64.943 63.9268 65.8787 63.5683 66.5803 63.1204C67.2256 62.7085 67.9969 62.0057 67.9969 60.9561C67.9969 60.2946 67.4607 59.7584 66.7992 59.7584C66.1734 59.7584 65.6596 60.2385 65.6061 60.8505C65.5714 60.892 65.4851 60.9777 65.2913 61.1014C64.881 61.3634 64.2077 61.6442 63.269 61.8977C61.4088 62.4 58.772 62.7252 55.8123 62.7252C52.8525 62.7252 50.2157 62.4 48.3555 61.8977C47.4168 61.6442 46.7435 61.3634 46.3332 61.1014C46.1395 60.9778 46.0531 60.892 46.0184 60.8505ZM65.6268 60.8219C65.6269 60.8219 65.6261 60.8235 65.6241 60.8267C65.6256 60.8235 65.6266 60.8219 65.6268 60.8219ZM46.0004 60.8267C45.9984 60.8235 45.9976 60.8219 45.9978 60.8219C45.9979 60.8219 45.9989 60.8235 46.0004 60.8267Z" />
		<path d="M34.5443 15.6001C34.5443 14.1641 35.4398 13.0001 36.5443 13.0001C37.6489 13.0001 38.5443 14.1641 38.5443 15.6001V36.4001C38.5443 37.836 37.6489 39.0001 36.5443 39.0001C35.4398 39.0001 34.5443 37.836 34.5443 36.4001V15.6001Z" />
		<path d="M34.6519 35.988C35.9657 35.4424 37.3694 35.8158 37.7873 36.822C38.2052 37.8282 37.479 39.0862 36.1653 39.6318L21.8929 45.5594C20.5791 46.105 19.1753 45.7316 18.7574 44.7254C18.3395 43.7192 19.0658 42.4612 20.3795 41.9156L34.6519 35.988Z" />
		<path fill-rule="evenodd" clip-rule="evenodd" d="M37.7897 60.2682C37.4022 60.3183 37.0116 60.36 36.6183 60.3931C22.2802 61.6012 9.67748 50.9572 8.46941 36.6191C7.26133 22.281 17.9053 9.67828 32.2435 8.47021C46.5816 7.26213 59.1843 17.9061 60.3923 32.2443C60.4254 32.6373 60.4497 33.029 60.4651 33.4192L63.8344 33.1353C63.817 32.745 63.7917 32.3534 63.7586 31.9606C62.3939 15.7633 48.1571 3.73918 31.9598 5.1039C15.7625 6.46862 3.73838 20.7054 5.1031 36.9027C6.46782 53.1 20.7046 65.1242 36.9019 63.7594C37.295 63.7263 37.6856 63.6856 38.0736 63.6375L37.7897 60.2682Z" />
		<path fill-rule="evenodd" clip-rule="evenodd" d="M31.7088 60.343C31.3201 60.3019 30.9305 60.2519 30.5403 60.193C16.3127 58.0441 6.52103 44.7683 8.66994 30.5408C10.8189 16.3132 24.0946 6.52154 38.3222 8.67045C52.5497 10.8194 62.3414 24.0951 60.1925 38.3227C60.1336 38.7127 60.0663 39.0993 59.9909 39.4825L63.3342 39.9875C63.4077 39.6037 63.474 39.2169 63.5328 38.8272C65.9604 22.7548 54.8991 7.75766 38.8267 5.3301C22.7543 2.90255 7.75715 13.9639 5.32959 30.0362C2.90204 46.1086 13.9634 61.1058 30.0357 63.5333C30.4258 63.5922 30.8152 63.6432 31.2038 63.6864L31.7088 60.343Z" />
	</symbol>
	<symbol id="books" fill="none">
		<g clip-path="url(#clip0)">
			<path d="M11.5 0H6.51667C6.30497 0 6.13333 0.171639 6.13333 0.383333V3.06667H0.383333C0.171639 3.06667 0 3.23831 0 3.45V22.6167C0 22.8284 0.171639 23 0.383333 23H11.5C11.7117 23 11.8833 22.8284 11.8833 22.6167V0.383333C11.8833 0.171639 11.7117 0 11.5 0ZM11.1167 19.9333H6.9V19.1667H11.1167V19.9333ZM0.766667 5.75H6.13333V17.25H0.766667V5.75ZM11.1167 4.21667H6.9V3.06667H11.1167V4.21667ZM0.766667 18.0167H6.13333V19.1667H0.766667V18.0167ZM6.9 18.4V4.98333H11.1167V18.4H6.9ZM11.1167 0.766667V2.3H6.9V0.766667H11.1167ZM6.13333 3.83333V4.98333H0.766667V3.83333H6.13333ZM0.766667 19.9333H6.13333V22.2333H0.766667V19.9333ZM6.9 22.2333V20.7H11.1167V22.2333H6.9Z" fill="#9B51E0" />
			<path d="M22.9878 20.9867L18.3878 3.35333C18.3621 3.25451 18.2981 3.17009 18.2098 3.11862C18.1216 3.06733 18.0166 3.05329 17.918 3.07968L12.168 4.61302C11.9643 4.6673 11.8426 4.87581 11.8958 5.07983L16.4958 22.7132C16.5214 22.812 16.5856 22.8964 16.674 22.9477C16.7622 22.9988 16.8672 23.0126 16.9656 22.9861L22.7156 21.4527C22.9189 21.3984 23.0404 21.1903 22.9878 20.9867ZM13.3447 7.59677L18.3541 6.26128L18.5343 6.9512L13.5253 8.28875L13.3447 7.59677ZM18.7279 7.69503L20.9511 16.2233L15.9436 17.5593L13.7204 9.03052L18.7279 7.69503ZM21.1463 16.9654L21.5389 18.4697L16.5295 19.8052L16.1385 18.3015L21.1463 16.9654ZM17.7431 3.91954L18.1605 5.51988L13.1512 6.85499L12.7342 5.2554L17.7431 3.91954ZM17.1404 22.147L16.723 20.5466L21.7324 19.2108L22.1494 20.8103L17.1404 22.147Z" fill="#9B51E0" />
			<path d="M4.98375 6.90063H1.91709C1.70539 6.90063 1.53375 7.07227 1.53375 7.28397V10.3506C1.53375 10.5623 1.70539 10.734 1.91709 10.734H4.98375C5.19545 10.734 5.36708 10.5623 5.36708 10.3506V7.28397C5.36708 7.07227 5.19545 6.90063 4.98375 6.90063ZM4.60042 9.9673H2.30042V7.6673H4.60042V9.9673Z" fill="#9B51E0" />
		</g>
		<defs>
			<clipPath id="clip0">
				<rect width="23" height="23" fill="white" />
			</clipPath>
		</defs>
	</symbol>
	<symbol id="horse" fill="none">
		<path d="M1.70923 16.9121C2.3432 16.6322 2.95452 16.3522 3.61113 16.0723C4.08661 17.0987 4.74322 18.0085 5.62624 18.7784C6.05644 15.8857 6.48663 13.0163 6.93946 10.1236C6.53191 10.0769 6.21493 10.2169 5.92059 10.4502C5.44511 10.8701 5.12813 11.4066 4.92435 12.0132C4.72058 12.6197 4.53944 13.2496 4.35831 13.8794C4.33567 13.9494 4.31303 14.0427 4.29038 14.1594C2.99981 13.8095 1.7998 13.3429 1.18847 11.9898C1.00734 11.5699 0.962056 11.08 1.02998 10.6135C1.05262 10.5435 1.09791 10.4502 1.14319 10.4035C2.16207 9.42374 3.40736 8.86387 4.7885 8.65391C5.46775 8.5606 6.19229 8.53727 6.89418 8.53727C8.2074 8.51394 9.52061 8.51394 10.8338 8.49062C12.4414 8.46729 14.0263 8.44396 15.6339 8.42063C15.8829 8.42063 15.8829 8.28066 15.8829 8.09404C15.9509 7.16091 16.0867 6.25111 16.3584 5.34131C16.8112 3.77831 17.7622 2.65856 19.1207 1.81874C20.7735 0.792301 22.4717 0.81563 24.2151 1.42216C24.3509 1.46882 24.5094 1.49215 24.6453 1.49215C25.0441 1.51632 25.4246 1.60935 25.8059 1.73883C26.1663 1.86122 26.1305 2.37132 25.7608 2.46184C25.5773 2.50677 25.3956 2.54901 25.2113 2.58857C25.4151 3.33508 25.6641 4.03492 25.8226 4.73477C26.0038 5.55126 26.1396 6.39108 26.2755 7.23089C26.4113 8.00072 25.2792 8.77055 24.6226 8.5606C24.5547 8.53727 24.5094 8.42063 24.4868 8.35065C24.3283 7.4875 23.8302 6.88097 23.083 6.48439C22.5169 6.20445 22.132 6.36775 21.8603 6.97428C21.6339 7.51083 21.6113 8.07071 21.566 8.63058C21.5207 9.35376 21.7698 9.98362 21.9056 10.6601C22.2 12.1065 22.4264 13.5762 22.6754 15.0458C22.8792 16.2123 23.0377 17.402 23.2188 18.6151C24.0339 17.8919 24.6226 17.0521 25.0755 16.049C25.7321 16.3289 26.3434 16.6088 27 16.9121C26.6604 17.7752 26.1849 18.5451 25.5962 19.2449C24.0792 21.0645 22.1773 22.2543 20.0037 23.0241C16.9018 24.1205 13.732 24.2838 10.5395 23.5606C8.23004 23.0708 6.12436 22.091 4.31303 20.5046C3.20358 19.5482 2.09414 18.0552 1.70923 16.9121ZM7.5055 20.1781C8.16211 20.458 8.79608 20.7613 9.45269 20.9945C10.7659 21.4844 12.1244 21.741 13.5282 21.811C14.6829 21.881 15.8376 21.811 16.9697 21.6011C18.4188 21.3445 19.7999 20.8779 21.1132 20.1781C21.2264 20.1081 21.2717 20.0381 21.2264 19.8981C21.1584 19.6182 21.1132 19.3149 21.0226 19.035C20.2754 16.5622 18.6226 15.0692 16.132 14.7426C15.1131 14.6026 14.0716 14.6959 13.0527 14.8825C11.3999 15.2325 9.95081 15.9323 8.86401 17.262C8.18475 18.1018 7.73192 19.0583 7.5055 20.1781Z" stroke="#F2994A" />
	</symbol>
	<symbol id="parking" fill="none">
		<g clip-path="url(#clip0)">
			<path d="M12.6926 0.127563C10.3598 0.127563 8.07934 0.846325 6.13966 2.19296C4.19997 3.53959 2.68818 5.45361 1.79544 7.69298C0.902701 9.93234 0.66912 12.3965 1.12423 14.7738C1.57935 17.1511 2.70271 19.3348 4.35228 21.0487C6.00184 22.7626 8.10352 23.9298 10.3915 24.4027C12.6795 24.8756 15.0511 24.6329 17.2064 23.7053C19.3616 22.7777 21.2038 21.207 22.4998 19.1916C23.7959 17.1762 24.4876 14.8068 24.4876 12.3829C24.4841 9.13369 23.2403 6.01862 21.0291 3.72109C18.8178 1.42357 15.8198 0.131213 12.6926 0.127563V0.127563ZM12.6926 22.5957C10.7486 22.5957 8.84822 21.9967 7.23182 20.8745C5.61542 19.7523 4.35558 18.1573 3.61164 16.2911C2.86769 14.425 2.67304 12.3716 3.0523 10.3905C3.43156 8.40939 4.3677 6.58965 5.74234 5.16137C7.11697 3.73309 8.86837 2.76041 10.775 2.36635C12.6817 1.97229 14.658 2.17454 16.4541 2.94752C18.2501 3.7205 19.7852 5.02949 20.8653 6.70897C21.9453 8.38846 22.5218 10.363 22.5218 12.3829C22.5188 15.0905 21.4823 17.6864 19.6396 19.601C17.7969 21.5156 15.2986 22.5926 12.6926 22.5957Z" fill="#2F80ED" />
			<path d="M14.1671 7.27698H10.7269C10.4662 7.27698 10.2162 7.38458 10.0318 7.5761C9.84751 7.76763 9.74396 8.02739 9.74396 8.29825V18.511H11.7098V14.4259H14.1671C15.0795 14.4259 15.9545 14.0493 16.5997 13.379C17.2449 12.7086 17.6073 11.7995 17.6073 10.8514C17.6073 9.90344 17.2449 8.99426 16.5997 8.32392C15.9545 7.65357 15.0795 7.27698 14.1671 7.27698ZM14.1671 12.3834H11.7098V9.31953H14.1671C14.5581 9.31953 14.9331 9.48093 15.2096 9.76822C15.4861 10.0555 15.6415 10.4452 15.6415 10.8514C15.6415 11.2577 15.4861 11.6474 15.2096 11.9347C14.9331 12.222 14.5581 12.3834 14.1671 12.3834Z" fill="#2F80ED" />
		</g>
		<defs>
			<clipPath id="clip0">
				<rect width="23.5901" height="24.5106" fill="white" transform="translate(0.897636 0.127563)" />
			</clipPath>
		</defs>
	</symbol>
	<symbol id="train" fill="none">
		<g clip-path="url(#clip0)">
			<path d="M14.1594 2.01849C13.9308 2.01849 13.7453 2.20405 13.7453 2.43267C13.7453 2.6613 13.9308 2.84685 14.1594 2.84685C14.3881 2.84685 14.5736 2.6613 14.5736 2.43267C14.5736 2.20405 14.3881 2.01849 14.1594 2.01849Z" fill="#4285F4" />
			<path d="M7.53259 2.01849C7.30396 2.01849 7.11841 2.20405 7.11841 2.43267C7.11841 2.6613 7.30396 2.84685 7.53259 2.84685C7.76121 2.84685 7.94677 2.6613 7.94677 2.43267C7.94677 2.20405 7.76121 2.01849 7.53259 2.01849Z" fill="#4285F4" />
			<path d="M19.4604 20.8672L16.7197 18.0039C17.8269 17.9642 18.7156 17.0517 18.7156 15.9349V3.64501C18.7156 2.97582 18.4817 2.32233 18.0569 1.8049C17.6318 1.28759 17.0363 0.931105 16.3803 0.801343C14.9103 0.509678 13.4053 0.361816 11.9069 0.361816H9.71882C8.29376 0.361816 6.80938 0.49833 5.30732 0.798526C3.95689 1.06869 2.97678 2.26447 2.97678 3.6417V15.9349C2.97678 17.0611 3.88052 17.9795 5.00075 18.0046L2.22911 20.8654C2.11334 20.9848 2.08029 21.1619 2.14519 21.3151C2.21001 21.4682 2.36024 21.5678 2.52657 21.5678H5.48795C5.62073 21.5678 5.74544 21.5041 5.82335 21.3966L7.07972 19.6625H14.6495L15.9059 21.3966C15.9838 21.5041 16.1085 21.5678 16.2413 21.5678H19.1612C19.3271 21.5678 19.4769 21.4688 19.5421 21.3163C19.6072 21.1637 19.5751 20.987 19.4604 20.8672ZM3.80514 15.9349V3.6417C3.80514 2.6579 4.50522 1.80378 5.46972 1.61077C6.82172 1.34056 8.25035 1.19017 9.71878 1.19017H11.9069C13.3512 1.19017 14.802 1.33269 16.2192 1.61384C16.6878 1.70657 17.1132 1.96121 17.4167 2.33061C17.7201 2.70019 17.8872 3.16696 17.8872 3.64497V15.9349C17.8872 16.6201 17.3298 17.1775 16.6446 17.1775H5.04763C4.36254 17.1775 3.80514 16.6201 3.80514 15.9349ZM5.27659 20.7394H3.50453L6.15291 18.0058H7.25719L5.27659 20.7394ZM7.6799 18.8342L8.28009 18.0058H13.4492L14.0493 18.8342H7.6799ZM16.4526 20.7394L14.4721 18.0058H15.5748L18.1914 20.7394H16.4526Z" fill="#4285F4" />
			<path d="M16.6445 3.67523H5.04751C4.8188 3.67523 4.63333 3.8607 4.63333 4.08941V10.9648C4.63333 11.1935 4.8188 11.379 5.04751 11.379H16.6445C16.8732 11.379 17.0587 11.1935 17.0587 10.9648V4.08941C17.0587 3.8607 16.8732 3.67523 16.6445 3.67523ZM10.4318 10.5506H5.46169V4.50359H10.4318V10.5506ZM16.2303 10.5506H11.2602V4.50359H16.2303V10.5506Z" fill="#4285F4" />
			<path d="M12.5027 2.01849H9.18929C8.96059 2.01849 8.77512 2.20396 8.77512 2.43267C8.77512 2.66138 8.96059 2.84685 9.18929 2.84685H12.5027C12.7314 2.84685 12.9169 2.66138 12.9169 2.43267C12.9169 2.20396 12.7314 2.01849 12.5027 2.01849Z" fill="#4285F4" />
			<path d="M15.402 12.6215C14.4885 12.6215 13.7453 13.3647 13.7453 14.2782C13.7453 15.1917 14.4885 15.9349 15.402 15.9349C16.3155 15.9349 17.0587 15.1917 17.0587 14.2782C17.0587 13.3647 16.3155 12.6215 15.402 12.6215ZM15.402 15.1065C14.9452 15.1065 14.5736 14.7349 14.5736 14.2782C14.5736 13.8214 14.9452 13.4498 15.402 13.4498C15.8587 13.4498 16.2303 13.8214 16.2303 14.2782C16.2303 14.7349 15.8587 15.1065 15.402 15.1065Z" fill="#4285F4" />
			<path d="M6.29004 12.6215C5.37653 12.6215 4.63333 13.3647 4.63333 14.2782C4.63333 15.1917 5.37657 15.9349 6.29004 15.9349C7.20355 15.9349 7.94675 15.1917 7.94675 14.2782C7.94675 13.3647 7.20355 12.6215 6.29004 12.6215ZM6.29004 15.1065C5.83329 15.1065 5.46169 14.7349 5.46169 14.2782C5.46169 13.8214 5.83329 13.4498 6.29004 13.4498C6.7468 13.4498 7.1184 13.8214 7.1184 14.2782C7.1184 14.7349 6.7468 15.1065 6.29004 15.1065Z" fill="#4285F4" />
			<path d="M12.5027 13.0356H9.18929C8.96059 13.0356 8.77512 13.2211 8.77512 13.4498C8.77512 13.6785 8.96059 13.864 9.18929 13.864H12.5027C12.7314 13.864 12.9169 13.6785 12.9169 13.4498C12.9169 13.2211 12.7315 13.0356 12.5027 13.0356Z" fill="#4285F4" />
			<path d="M12.5027 14.6924H9.18929C8.96059 14.6924 8.77512 14.8779 8.77512 15.1066C8.77512 15.3353 8.96059 15.5207 9.18929 15.5207H12.5027C12.7314 15.5207 12.9169 15.3353 12.9169 15.1066C12.9169 14.8779 12.7315 14.6924 12.5027 14.6924Z" fill="#4285F4" />
		</g>
		<defs>
			<clipPath id="clip0">
				<rect width="21.2059" height="21.2059" fill="white" transform="translate(0.240265 0.361816)" />
			</clipPath>
		</defs>
	</symbol>
	<symbol id="plane" fill="none">
		<path d="M21.5156 2.59188C21.5226 1.91507 21.2628 1.27881 20.7842 0.800187C20.3119 0.327816 19.686 0.0686646 19.0191 0.0686646C19.0102 0.0686646 19.0014 0.068706 18.9925 0.0687888C18.3157 0.075747 17.6849 0.348566 17.2163 0.836883L13.5045 4.70469L3.79208 1.4905L0.923766 4.35881L9.04042 9.35645L5.70069 12.8366L3.07944 12.4063L0.30983 15.1758L4.82661 16.7579L6.40861 21.2746L9.17822 18.505L8.74789 15.8837L12.2281 12.544L17.2257 20.6607L20.0941 17.7924L16.8799 8.07995L20.7476 4.36821C21.2359 3.89953 21.5086 3.26869 21.5156 2.59188ZM19.8864 3.47081L15.4525 7.72583L18.6723 17.4552L17.4594 18.6681L12.479 10.5794L7.41452 15.4395L7.8475 18.0768L6.92832 18.996L5.80258 15.7818L2.58847 14.6561L3.50766 13.7369L6.14494 14.1699L11.005 9.1055L2.91638 4.12513L4.1293 2.91221L13.8586 6.13199L18.1137 1.69808C18.3489 1.45293 18.6656 1.316 19.0053 1.31248C19.0098 1.3124 19.0143 1.3124 19.0186 1.3124C19.3534 1.3124 19.6677 1.44249 19.9048 1.67965C20.1451 1.91992 20.2755 2.23933 20.272 2.57908C20.2685 2.91883 20.1315 3.23551 19.8864 3.47081Z" fill="#4285F4" />
	</symbol>
	<symbol id="stage" fill="none">
		<path d="M43.0776 38.7836H42.5241H40.6792H29.4532V10.8195V9.10078V0.859375C29.4532 0.386719 29.0382 0 28.5308 0H2.39832C1.89099 0 1.47589 0.386719 1.47589 0.859375V38.7836H0.922432C0.415094 38.7836 0 39.1703 0 39.643V43.1406C0 43.6133 0.415094 44 0.922432 44H43.0776C43.5849 44 44 43.6133 44 43.1406V39.643C44 39.1703 43.5849 38.7836 43.0776 38.7836ZM3.32075 1.71875H27.6176V38.7836H16.3916V8.60234C16.3916 8.12969 15.9765 7.74297 15.4692 7.74297C14.9618 7.74297 14.5468 8.12969 14.5468 8.60234V38.7836H3.32075V1.71875ZM42.1551 42.2812H1.84486V40.5023H42.1551V42.2812Z" fill="#2D9CDB" />
	</symbol>
</svg>
