<svg xmlns="http://www.w3.org/2000/svg">
	<symbol id="phone-painted-green">
		<path d="M4.03738 0.482295L5.90542 2.34683C6.62853 3.06858 6.62853 3.91063 5.90542 4.57223L4.51945 5.95559C5.12205 8.66217 7.35165 10.8274 10.0031 11.4289L11.389 10.0455C12.1121 9.38392 12.9558 9.38392 13.6186 10.0455L15.4867 11.9702C16.1495 12.5717 16.1495 13.4137 15.6072 14.0753L14.0404 16C5.60412 16 0 10.4064 0 1.98595L1.9283 0.422149C2.59115 -0.179313 3.43479 -0.119166 4.03738 0.482295Z" fill="#14451F" />
	</symbol>
	<symbol id="select-btn" fill="none">
		<path d="M15.1406 14.1025H14.9542V3.62269C14.9542 3.45009 14.8142 3.31019 14.6417 3.31019H10.5264V0.3125C10.5264 0.139906 10.3865 0 10.2139 0H1.35834C1.18575 0 1.04584 0.139906 1.04584 0.3125V14.1025H0.859375C0.686781 14.1025 0.546875 14.2424 0.546875 14.415V15.6875C0.546875 15.8601 0.686781 16 0.859375 16H15.1406C15.3132 16 15.4531 15.8601 15.4531 15.6875V14.415C15.4531 14.2424 15.3132 14.1025 15.1406 14.1025ZM10.5264 3.93519H14.3292V14.1025H10.5264V3.93519ZM1.67084 0.625H9.90141V3.62269V14.1025H6.09859V3.12828C6.09859 2.95569 5.95869 2.81578 5.78609 2.81578C5.6135 2.81578 5.47359 2.95569 5.47359 3.12828V14.1025H1.67084V0.625ZM14.8281 15.375H1.17188V14.7275H10.2139H14.8281V15.375Z" fill="#14451F" />
	</symbol>
	<symbol id="humburger">
		<rect width="22" height="2" rx="1" fill="white" />
		<rect y="5" width="22" height="2" rx="1" fill="white" />
		<rect x="5" y="10" width="17" height="2" rx="1" fill="white" />
	</symbol>
	<symbol id="phone-blue" fill="none">
		<path d="M5.54205 1.54258L7.6436 3.64018C8.4571 4.45215 8.4571 5.39945 7.6436 6.14376L6.08439 7.70004C6.7623 10.7449 9.2706 13.1809 12.2534 13.8575L13.8127 12.3012C14.6262 11.5569 15.5752 11.5569 16.321 12.3012L18.4225 14.4665C19.1682 15.1431 19.1682 16.0904 18.5581 16.8347L16.7955 19C7.30464 19 1 12.7072 1 3.23419L3.16934 1.47492C3.91505 0.798273 4.86413 0.865938 5.54205 1.54258Z" stroke="#4285F4" stroke-width="1.29091" />
	</symbol>
	<symbol id="address" fill="none">
		<path d="M17 9C17 13.4183 9 23.5 9 23.5C9 23.5 1 13.4183 1 9C1 4.58172 4.58172 1 9 1C13.4183 1 17 4.58172 17 9Z" stroke="#4285F4" stroke-width="2" />
		<circle cx="9" cy="9" r="3.5" stroke="#4285F4" />
	</symbol>
	<symbol id="phone-white" fill="none">
		<path d="M6.31234 2.42403L8.77029 4.87736C9.72175 5.82703 9.72175 6.93499 8.77029 7.80552L6.94665 9.62574C7.73954 13.187 10.6732 16.036 14.1619 16.8274L15.9856 15.0072C16.937 14.1367 18.0471 14.1367 18.9192 15.0072L21.3772 17.5397C22.2494 18.3311 22.2494 19.4391 21.5358 20.3096L19.4743 22.8421C8.37385 22.8421 1 15.4821 1 4.40252L3.53724 2.34489C4.40941 1.55349 5.51945 1.63263 6.31234 2.42403Z" stroke="white" stroke-width="1.69856" />
	</symbol>
	<symbol id="mail" fill="none">
		<rect x="1" y="1" width="16.0013" height="12.001" rx="1.55556" stroke="#4285F4" stroke-width="1.55556" />
		<path d="M3.85794 4.33337L8.25161 7.19591C8.77793 7.53882 9.45885 7.53151 9.97769 7.17738L14.1445 4.33337" stroke="#4285F4" stroke-width="1.55556" stroke-linecap="round" />
	</symbol>
	<symbol id="document" fill="none">
		<g clip-path="url(#clip0)">
			<path d="M19.9776 4.27919L15.9345 0.236093C15.8592 0.160617 15.7696 0.100966 15.6709 0.0606459C15.5734 0.0207997 15.469 0.000189519 15.3637 0H4.85168C3.51193 0 2.42584 1.08608 2.42584 2.42584V20.2153C2.42584 21.5551 3.51193 22.6412 4.85168 22.6412H17.7895C19.1292 22.6412 20.2153 21.5551 20.2153 20.2153V4.85167C20.2142 4.63704 20.1288 4.43146 19.9776 4.27919ZM16.1722 2.76062L17.4547 4.04309H16.1722V2.76062ZM18.5981 20.2153C18.5981 20.6619 18.236 21.024 17.7894 21.024H4.85168C4.40508 21.024 4.04305 20.6619 4.04305 20.2153V2.42584C4.04305 1.97924 4.40508 1.61721 4.85168 1.61721H14.555V4.85167C14.555 5.29827 14.9171 5.6603 15.3637 5.6603H18.5981V20.2153H18.5981Z" fill="#4285F4" />
		</g>
		<defs>
			<clipPath id="clip0">
				<rect width="22.6412" height="22.6412" fill="white" />
			</clipPath>
		</defs>
	</symbol>
	<symbol id="player-start">
		<path d="M54.0447 27.1027C57.6175 29.1654 57.6175 34.3223 54.0447 36.3851L9.02719 62.376C5.45437 64.4387 0.988354 61.8603 0.988355 57.7347L0.988357 5.75303C0.988357 1.6275 5.45438 -0.950953 9.02719 1.11181L54.0447 27.1027Z" fill="white" />
	</symbol>
	<symbol id="area">
		<path fill-rule="evenodd" clip-rule="evenodd" d="M0.781738 1.37109H3.2733V2.62176H2.03241V3.86266H0.781738V1.37109ZM0.781738 23.8929V26.3844H3.2733V25.1338H2.0324V23.8929H0.781738ZM23.3035 26.3844H25.7951V23.8929H24.5444V25.1338H23.3035V26.3844ZM25.7951 3.86266V1.37109H23.3035V2.62176H24.5444V3.86266H25.7951ZM4.53374 1.37109V3.86266H7.03507V1.37109H4.53374ZM9.5364 1.37109V3.86266H12.0377V1.37109H9.5364ZM14.5391 1.37109V3.86266H17.0404V1.37109H14.5391ZM19.5417 1.37109V3.86266H22.0431V1.37109H19.5417ZM25.7951 5.12309H23.3035V7.62443H25.7951V5.12309ZM25.7951 10.1258H23.3035V12.6271H25.7951V10.1258ZM25.7951 15.1284H23.3035V17.6298H25.7951V15.1284ZM25.7951 20.1311H23.3035V22.6324H25.7951V20.1311ZM22.0431 26.3844V23.8929H19.5417V26.3844H22.0431ZM17.0404 26.3844V23.8929H14.5391V26.3844H17.0404ZM12.0377 26.3844V23.8929H9.5364V26.3844H12.0377ZM7.03507 26.3844V23.8929H4.53374V26.3844H7.03507ZM0.781738 22.6324H3.2733V20.1311H0.781738V22.6324ZM0.781738 17.6298H3.2733V15.1284H0.781738V17.6298ZM0.781738 12.6271H3.2733V10.1258H0.781738V12.6271ZM0.781738 7.62443H3.2733V5.12309H0.781738V7.62443Z" fill="#333333" />
		<path fill-rule="evenodd" clip-rule="evenodd" d="M13.9718 7.72208H7.13223V14.5617H13.9718V7.72208ZM5.47119 6.06104V16.2227H15.6329V6.06104H5.47119Z" fill="#333333" />
		<path fill-rule="evenodd" clip-rule="evenodd" d="M19.444 13.1939H12.6044V20.0335H19.444V13.1939ZM10.9434 11.5328V21.6945H21.105V11.5328H10.9434Z" fill="#333333" />
		<path d="M0 0.589478H3.12667V3.71614H0V0.589478Z" fill="#333333" />
		<path d="M0 24.0396H3.12667V27.1662H0V24.0396Z" fill="#333333" />
		<path d="M23.4502 0.589478H26.5769V3.71614H23.4502V0.589478Z" fill="#333333" />
		<path d="M23.4502 24.0396H26.5769V27.1662H23.4502V24.0396Z" fill="#333333" />
	</symbol>
	<symbol id="stages">
		<path d="M26.414 23.9642H26.0797H24.9654H18.1847V7.07349V6.03534V1.05741C18.1847 0.771914 17.934 0.53833 17.6276 0.53833H1.84315C1.53671 0.53833 1.28599 0.771914 1.28599 1.05741V23.9642H0.951694C0.645254 23.9642 0.394531 24.1978 0.394531 24.4833V26.5959C0.394531 26.8814 0.645254 27.115 0.951694 27.115H26.414C26.7205 27.115 26.9712 26.8814 26.9712 26.5959V24.4833C26.9712 24.1978 26.7205 23.9642 26.414 23.9642ZM2.40032 1.57648H17.076V23.9642H10.2953V5.73427C10.2953 5.44878 10.0446 5.2152 9.73815 5.2152C9.43171 5.2152 9.18099 5.44878 9.18099 5.73427V23.9642H2.40032V1.57648ZM25.8569 26.0768H1.50886V25.0024H25.8569V26.0768Z" fill="#333333" />
	</symbol>
	<symbol id="compilation">
		<path d="M16.4877 6.57652V3.61187C16.4877 3.33644 16.2623 3.11108 15.9869 3.11108H13.0223C12.7468 3.11108 12.5215 3.33644 12.5215 3.61187V6.57652C12.5215 6.85195 12.7468 7.0773 13.0223 7.0773H15.9869C16.2623 7.0773 16.4877 6.85195 16.4877 6.57652ZM15.4861 6.07573H13.5231V4.11266H15.4861V6.07573Z" fill="#333333" />
		<path d="M20.0379 7.0773H23.0025C23.278 7.0773 23.5033 6.85195 23.5033 6.57652V3.61187C23.5033 3.33644 23.278 3.11108 23.0025 3.11108H20.0379C19.7625 3.11108 19.5371 3.33644 19.5371 3.61187V6.57652C19.5371 6.85195 19.7625 7.0773 20.0379 7.0773ZM20.5387 4.11266H22.5018V6.07573H20.5387V4.11266Z" fill="#333333" />
		<path d="M20.0379 12.0749H23.0025C23.278 12.0749 23.5033 11.8495 23.5033 11.5741V8.60943C23.5033 8.334 23.278 8.10864 23.0025 8.10864H20.0379C19.7625 8.10864 19.5371 8.334 19.5371 8.60943V11.5741C19.5371 11.8495 19.7625 12.0749 20.0379 12.0749ZM20.5387 9.11021H22.5018V11.0733H20.5387V9.11021Z" fill="#333333" />
		<path d="M17.5497 4.32263C17.5647 4.35268 17.5798 4.38273 17.5948 4.40777C17.6148 4.4328 17.6348 4.46285 17.6549 4.48288C17.6799 4.50792 17.7049 4.52795 17.73 4.54298C17.755 4.56301 17.7851 4.57803 17.8151 4.58805C17.8452 4.59806 17.8752 4.60808 17.9103 4.6181C17.9453 4.6231 17.9754 4.62811 18.0104 4.62811C18.0405 4.62811 18.0755 4.6231 18.1106 4.6181C18.1406 4.61309 18.1757 4.60307 18.2057 4.58805C18.2358 4.57303 18.2658 4.558 18.2909 4.54298C18.3159 4.52295 18.3409 4.50291 18.366 4.48288C18.4611 4.38773 18.5112 4.26254 18.5112 4.12733C18.5112 4.09227 18.5062 4.06222 18.5012 4.02717C18.4962 3.99712 18.4862 3.96207 18.4711 3.93202C18.4561 3.90197 18.4411 3.87192 18.4261 3.84689C18.406 3.82185 18.386 3.7918 18.366 3.77177C18.2508 3.65659 18.0755 3.6015 17.9153 3.63656C17.8852 3.64156 17.8502 3.65158 17.8201 3.6666C17.7901 3.68163 17.76 3.69665 17.735 3.71167C17.71 3.7317 17.6849 3.75174 17.6599 3.77177C17.6348 3.79681 17.6148 3.82185 17.5998 3.84689C17.5798 3.87192 17.5647 3.90197 17.5547 3.93202C17.5447 3.96207 17.5347 3.99211 17.5247 4.02717C17.5197 4.06222 17.5146 4.09227 17.5146 4.12733C17.5146 4.15737 17.5197 4.19243 17.5247 4.22247C17.5297 4.26254 17.5397 4.29258 17.5497 4.32263Z" fill="#333333" />
		<path d="M26.8137 30.3136H26.5132H26.2979H25.6118V6.99702V5.99545V1.19292C25.6118 0.917492 25.3864 0.692139 25.111 0.692139H10.9188C10.6433 0.692139 10.418 0.917492 10.418 1.19292V7.71815H2.03983C1.7644 7.71815 1.53905 7.94351 1.53905 8.21894V30.3186H1.23858C0.963146 30.3186 0.737793 30.5439 0.737793 30.8194V32.8576C0.737793 33.133 0.963146 33.3583 1.23858 33.3583H24.1245C24.1295 33.3583 24.1345 33.3583 24.1395 33.3583H26.8137C27.0891 33.3583 27.3145 33.133 27.3145 32.8576V30.8194C27.3145 30.5389 27.0891 30.3136 26.8137 30.3136ZM11.4195 1.69371H24.6102V30.3136H23.824V13.5223C23.824 13.2468 23.5986 13.0215 23.3232 13.0215H18.5157V5.705C18.5157 5.42956 18.2903 5.20421 18.0149 5.20421C17.7394 5.20421 17.5141 5.42956 17.5141 5.705V13.0215H16.7329V8.21894C16.7329 7.94351 16.5075 7.71815 16.2321 7.71815H11.4195V1.69371ZM22.8224 14.023V30.3136H16.7329V14.023H22.8224ZM2.54062 8.71972H15.7313V30.3186H9.63674V12.731C9.63674 12.4556 9.41139 12.2302 9.13596 12.2302C8.86053 12.2302 8.63517 12.4556 8.63517 12.731V30.3186H2.54062V8.71972ZM26.3129 32.3518H24.6252H23.6237H23.173H1.73936V31.3151H22.8374H23.173H26.3129V32.3518Z" fill="#333333" />
		<path d="M7.10752 10.0568H4.14287C3.86744 10.0568 3.64209 10.2821 3.64209 10.5575V13.5222C3.64209 13.7976 3.86744 14.023 4.14287 14.023H7.10752C7.38295 14.023 7.60831 13.7976 7.60831 13.5222V10.5575C7.60831 10.2821 7.38295 10.0568 7.10752 10.0568ZM6.60674 13.0214H4.64366V11.0583H6.60674V13.0214Z" fill="#333333" />
		<path d="M11.1595 14.023H14.1241C14.3995 14.023 14.6249 13.7976 14.6249 13.5222V10.5575C14.6249 10.2821 14.3995 10.0568 14.1241 10.0568H11.1595C10.884 10.0568 10.6587 10.2821 10.6587 10.5575V13.5222C10.6587 13.7976 10.884 14.023 11.1595 14.023ZM11.6603 11.0583H13.6233V13.0214H11.6603V11.0583Z" fill="#333333" />
		<path d="M7.10752 15.0549H4.14287C3.86744 15.0549 3.64209 15.2803 3.64209 15.5557V18.5204C3.64209 18.7958 3.86744 19.0212 4.14287 19.0212H7.10752C7.38295 19.0212 7.60831 18.7958 7.60831 18.5204V15.5557C7.60831 15.2753 7.38295 15.0549 7.10752 15.0549ZM6.60674 18.0146H4.64366V16.0515H6.60674V18.0146Z" fill="#333333" />
		<path d="M11.1595 19.0157H14.1241C14.3995 19.0157 14.6249 18.7903 14.6249 18.5149V15.5502C14.6249 15.2748 14.3995 15.0494 14.1241 15.0494H11.1595C10.884 15.0494 10.6587 15.2748 10.6587 15.5502V18.5149C10.6587 18.7953 10.884 19.0157 11.1595 19.0157ZM11.6603 16.056H13.6233V18.0191H11.6603V16.056Z" fill="#333333" />
		<path d="M7.10752 20.0474H4.14287C3.86744 20.0474 3.64209 20.2727 3.64209 20.5481V23.5128C3.64209 23.7882 3.86744 24.0136 4.14287 24.0136H7.10752C7.38295 24.0136 7.60831 23.7882 7.60831 23.5128V20.5481C7.60831 20.2727 7.38295 20.0474 7.10752 20.0474ZM6.60674 23.012H4.64366V21.0489H6.60674V23.012Z" fill="#333333" />
		<path d="M11.1595 24.0136H14.1241C14.3995 24.0136 14.6249 23.7882 14.6249 23.5128V20.5481C14.6249 20.2727 14.3995 20.0474 14.1241 20.0474H11.1595C10.884 20.0474 10.6587 20.2727 10.6587 20.5481V23.5128C10.6587 23.7882 10.884 24.0136 11.1595 24.0136ZM11.6603 21.0489H13.6233V23.012H11.6603V21.0489Z" fill="#333333" />
		<path d="M7.10752 25.0455H4.14287C3.86744 25.0455 3.64209 25.2709 3.64209 25.5463V28.511C3.64209 28.7864 3.86744 29.0118 4.14287 29.0118H7.10752C7.38295 29.0118 7.60831 28.7864 7.60831 28.511V25.5463C7.60831 25.2659 7.38295 25.0455 7.10752 25.0455ZM6.60674 28.0052H4.64366V26.0421H6.60674V28.0052Z" fill="#333333" />
		<path d="M11.1595 29.0065H14.1241C14.3995 29.0065 14.6249 28.7811 14.6249 28.5057V25.5411C14.6249 25.2656 14.3995 25.0403 14.1241 25.0403H11.1595C10.884 25.0403 10.6587 25.2656 10.6587 25.5411V28.5057C10.6587 28.7862 10.884 29.0065 11.1595 29.0065ZM11.6603 26.0469H13.6233V28.0099H11.6603V26.0469Z" fill="#333333" />
		<path d="M8.67031 11.2689C8.68533 11.299 8.70036 11.329 8.71538 11.3541C8.73541 11.3791 8.75544 11.4091 8.77547 11.4292C8.80051 11.4542 8.82555 11.4742 8.85059 11.4893C8.88064 11.5093 8.90568 11.5243 8.93572 11.5343C8.96577 11.5494 8.99582 11.5544 9.03087 11.5644C9.06092 11.5694 9.09598 11.5744 9.13103 11.5744C9.16609 11.5744 9.19613 11.5694 9.23119 11.5644C9.26124 11.5594 9.29629 11.5494 9.32634 11.5343C9.35638 11.5193 9.38643 11.5043 9.41147 11.4893C9.43651 11.4692 9.46656 11.4492 9.48659 11.4292C9.58174 11.334 9.63182 11.2088 9.63182 11.0736C9.63182 11.0386 9.62681 11.0085 9.6218 10.9735C9.61679 10.9434 9.60678 10.9084 9.59175 10.8783C9.57673 10.8483 9.56171 10.8182 9.54668 10.7932C9.52665 10.7681 9.50662 10.7381 9.48659 10.7181C9.37141 10.6029 9.19613 10.5478 9.03588 10.5828C9.00583 10.5879 8.97078 10.5979 8.94073 10.6129C8.91069 10.6279 8.88064 10.6429 8.8556 10.658C8.83056 10.678 8.80552 10.698 8.78048 10.7181C8.75544 10.7431 8.73541 10.7681 8.72039 10.7932C8.70036 10.8182 8.68533 10.8483 8.67532 10.8783C8.66029 10.9084 8.65529 10.9384 8.64527 10.9735C8.64026 11.0035 8.63525 11.0386 8.63525 11.0736C8.63525 11.1087 8.64026 11.1387 8.64527 11.1738C8.65028 11.2088 8.66029 11.2389 8.67031 11.2689Z" fill="#333333" />
		<path d="M18.2552 19.0157H21.2198C21.4953 19.0157 21.7206 18.7903 21.7206 18.5149V15.5502C21.7206 15.2748 21.4953 15.0494 21.2198 15.0494H18.2552C17.9797 15.0494 17.7544 15.2748 17.7544 15.5502V18.5149C17.7544 18.7953 17.9797 19.0157 18.2552 19.0157ZM18.756 16.056H20.719V18.0191H18.756V16.056Z" fill="#333333" />
		<path d="M18.2552 24.0136H21.2198C21.4953 24.0136 21.7206 23.7882 21.7206 23.5128V20.5481C21.7206 20.2727 21.4953 20.0474 21.2198 20.0474H18.2552C17.9797 20.0474 17.7544 20.2727 17.7544 20.5481V23.5128C17.7544 23.7882 17.9797 24.0136 18.2552 24.0136ZM18.756 21.0489H20.719V23.012H18.756V21.0489Z" fill="#333333" />
		<path d="M18.2552 29.0065H21.2198C21.4953 29.0065 21.7206 28.7811 21.7206 28.5057V25.5411C21.7206 25.2656 21.4953 25.0403 21.2198 25.0403H18.2552C17.9797 25.0403 17.7544 25.2656 17.7544 25.5411V28.5057C17.7544 28.7862 17.9797 29.0065 18.2552 29.0065ZM18.756 26.0469H20.719V28.0099H18.756V26.0469Z" fill="#333333" />
	</symbol>
	<symbol id="horse" fill="none">
		<path d="M1.79332 19.0759C2.5426 18.7507 3.26512 18.4255 4.04116 18.1003C4.60313 19.2928 5.37917 20.3498 6.42281 21.2441C6.93125 17.8834 7.4397 14.5498 7.9749 11.1891C7.49322 11.1349 7.11857 11.2976 6.77069 11.5686C6.20873 12.0564 5.83409 12.6798 5.59325 13.3844C5.35241 14.0891 5.13833 14.8209 4.92425 15.5526C4.89749 15.6339 4.87073 15.7424 4.84397 15.8779C3.31864 15.4713 1.90036 14.9293 1.17783 13.3573C0.963752 12.8695 0.910232 12.3003 0.990512 11.7583C1.01727 11.677 1.07079 11.5686 1.12431 11.5144C2.32852 10.3761 3.80032 9.72562 5.43269 9.48169C6.23549 9.37328 7.09181 9.34618 7.92138 9.34618C9.47346 9.31908 11.0255 9.31908 12.5776 9.29198C14.4776 9.26487 16.3508 9.23777 18.2508 9.21067C18.5451 9.21067 18.5451 9.04805 18.5451 8.83123C18.6254 7.74714 18.786 6.69014 19.1071 5.63315C19.6423 3.81729 20.7662 2.51637 22.3718 1.54068C24.3253 0.348176 26.3323 0.375278 28.3928 1.07994C28.5534 1.13415 28.7407 1.16125 28.9013 1.16125C29.5624 1.20063 30.181 1.3974 30.8189 1.64759C31.0569 1.74094 31.0332 2.08322 30.7855 2.14672C30.3688 2.25359 29.9748 2.3497 29.5703 2.43506C29.8111 3.30234 30.1055 4.11541 30.2928 4.92849C30.5069 5.87707 30.6675 6.85276 30.828 7.82845C30.9886 8.72283 29.6506 9.61721 28.8745 9.37328C28.7942 9.34618 28.7407 9.21067 28.714 9.12936C28.5267 8.12657 27.9379 7.42191 27.0548 6.96117C26.3858 6.63594 25.9309 6.82566 25.6098 7.53032C25.3422 8.15367 25.3154 8.80413 25.2619 9.45459C25.2084 10.2948 25.5028 11.0265 25.6633 11.8125C26.0112 13.4929 26.2788 15.2003 26.5732 16.9078C26.814 18.2629 27.0013 19.6451 27.2154 21.0544C28.1788 20.2143 28.8745 19.2386 29.4097 18.0732C30.1858 18.3984 30.9083 18.7236 31.6843 19.0759C31.2829 20.0787 30.721 20.9731 30.0252 21.7862C28.2323 23.9002 25.9844 25.2824 23.4155 26.1768C19.7493 27.4506 16.0029 27.6403 12.2298 26.8001C9.50022 26.231 7.01153 25.0927 4.87073 23.2497C3.55948 22.1385 2.24824 20.404 1.79332 19.0759ZM8.6439 22.8703C9.41994 23.1955 10.1692 23.5478 10.9453 23.8189C12.4974 24.388 14.103 24.6861 15.7621 24.7675C17.1269 24.8488 18.4916 24.7675 19.8296 24.5235C21.5423 24.2254 23.1746 23.6834 24.7267 22.8703C24.8605 22.789 24.914 22.7077 24.8605 22.5451C24.7802 22.2198 24.7267 21.8675 24.6197 21.5423C23.7366 18.6694 21.7831 16.9349 18.8395 16.5554C17.6353 16.3928 16.4043 16.5012 15.2001 16.718C13.2466 17.1246 11.534 17.9376 10.2495 19.4825C9.4467 20.4582 8.9115 21.5694 8.6439 22.8703Z" stroke="#333333" stroke-width="1.00204" />
	</symbol>
	<symbol id="slider-right">
		<path fill-rule="evenodd" clip-rule="evenodd" d="M14.857 28.5713C14.2258 29.2025 14.2259 30.2259 14.8571 30.8571C15.4883 31.4883 16.5117 31.4883 17.1429 30.8571L30.8572 17.1428C31.4884 16.5116 31.4884 15.4882 30.8572 14.8571L17.1429 1.14271C16.5117 0.511528 15.4883 0.511542 14.8571 1.14273C14.2259 1.77391 14.2259 2.79728 14.8571 3.42847L26.2856 14.857C26.9168 15.4882 26.9168 16.5115 26.2856 17.1427L14.857 28.5713Z" fill="#C4C4C4" />
	</symbol>
	<symbol id="slider-left">
		<path fill-rule="evenodd" clip-rule="evenodd" d="M17.143 3.42847C17.7742 2.79728 17.7741 1.77387 17.1429 1.14268C16.5117 0.511495 15.4883 0.511433 14.8571 1.14262L1.14279 14.857C0.511603 15.4882 0.511602 16.5115 1.14279 17.1427L14.8571 30.857C15.4883 31.4882 16.5117 31.4882 17.1429 30.857C17.7741 30.2258 17.7741 29.2025 17.1429 28.5713L5.71439 17.1428C5.08321 16.5116 5.08321 15.4882 5.71439 14.8571L17.143 3.42847Z" fill="#C4C4C4" />
	</symbol>
	<symbol id="books">
		<g clip-path="url(#clip0)">
			<path d="M13.2227 0.53833H7.64435C7.40738 0.53833 7.21525 0.73666 7.21525 0.981274V4.08188H0.778712C0.541742 4.08188 0.349609 4.28021 0.349609 4.52483V26.672C0.349609 26.9167 0.541742 27.115 0.778712 27.115H13.2227C13.4596 27.115 13.6518 26.9167 13.6518 26.672V0.981274C13.6518 0.73666 13.4596 0.53833 13.2227 0.53833ZM12.7936 23.5714H8.07345V22.6855H12.7936V23.5714ZM1.20781 7.1825H7.21525V20.4708H1.20781V7.1825ZM12.7936 5.41072H8.07345V4.08188H12.7936V5.41072ZM1.20781 21.3567H7.21525V22.6855H1.20781V21.3567ZM8.07345 21.7997V6.29661H12.7936V21.7997H8.07345ZM12.7936 1.42422V3.196H8.07345V1.42422H12.7936ZM7.21525 4.96777V6.29661H1.20781V4.96777H7.21525ZM1.20781 23.5714H7.21525V26.2291H1.20781V23.5714ZM8.07345 26.2291V24.4573H12.7936V26.2291H8.07345Z" fill="#333333" />
			<path d="M26.0816 24.7887L20.9324 4.4133C20.9037 4.2991 20.8321 4.20156 20.7332 4.14208C20.6345 4.08282 20.5169 4.0666 20.4065 4.09709L13.97 5.86887C13.742 5.93159 13.6058 6.17253 13.6653 6.40827L18.8146 26.7837C18.8433 26.8979 18.9151 26.9955 19.014 27.0547C19.1127 27.1138 19.2303 27.1298 19.3405 27.0991L25.777 25.3273C26.0045 25.2646 26.1405 25.024 26.0816 24.7887ZM15.2872 9.31661L20.8947 7.77344L21.0965 8.57066L15.4894 10.1162L15.2872 9.31661ZM21.3131 9.43016L23.8018 19.2846L18.1965 20.8284L15.7078 10.9733L21.3131 9.43016ZM24.0204 20.1421L24.4597 21.8804L18.8523 23.4236L18.4146 21.686L24.0204 20.1421ZM20.2108 5.06755L20.6781 6.91675L15.0706 8.45949L14.6038 6.61115L20.2108 5.06755ZM19.5362 26.1295L19.0689 24.2803L24.6764 22.7367L25.1432 24.585L19.5362 26.1295Z" fill="#333333" />
			<path d="M5.92833 8.51221H2.49551C2.25854 8.51221 2.06641 8.71054 2.06641 8.95515V12.4987C2.06641 12.7433 2.25854 12.9417 2.49551 12.9417H5.92833C6.1653 12.9417 6.35743 12.7433 6.35743 12.4987V8.95515C6.35743 8.71054 6.1653 8.51221 5.92833 8.51221ZM5.49922 12.0558H2.92461V9.3981H5.49922V12.0558Z" fill="#333333" />
		</g>
		<defs>
			<clipPath id="clip0">
				<rect width="25.7461" height="26.5767" fill="white" transform="translate(0.349609 0.53833)" />
			</clipPath>
		</defs>
	</symbol>
	<symbol id="parking">
		<g clip-path="url(#clip0)">
			<path d="M14.0325 0.589478C11.4043 0.589478 8.83513 1.36882 6.64987 2.82897C4.46462 4.28911 2.76142 6.36446 1.75566 8.79258C0.749898 11.2207 0.486745 13.8925 0.999478 16.4702C1.51221 19.0479 2.7778 21.4157 4.63621 23.2741C6.49461 25.1325 8.86237 26.3981 11.4401 26.9108C14.0177 27.4235 16.6896 27.1604 19.1177 26.1546C21.5458 25.1489 23.6212 23.4457 25.0813 21.2604C26.5415 19.0752 27.3208 16.506 27.3208 13.8778C27.3168 10.3547 25.9156 6.9771 23.4244 4.48591C20.9332 1.99472 17.5555 0.593434 14.0325 0.589478V0.589478ZM14.0325 24.9514C11.8423 24.9514 9.70135 24.302 7.88031 23.0852C6.05926 21.8684 4.63993 20.1389 3.8018 18.1155C2.96366 16.0921 2.74437 13.8655 3.17164 11.7175C3.59892 9.56939 4.65358 7.59626 6.20225 6.04758C7.75092 4.49891 9.72405 3.44425 11.8721 3.01698C14.0202 2.5897 16.2467 2.80899 18.2702 3.64713C20.2936 4.48526 22.0231 5.9046 23.2398 7.72564C24.4566 9.54669 25.1061 11.6877 25.1061 13.8778C25.1027 16.8137 23.935 19.6284 21.859 21.7044C19.783 23.7803 16.9684 24.9481 14.0325 24.9514Z" fill="#333333" />
			<path d="M15.6931 8.34143H11.8173C11.5236 8.34143 11.242 8.4581 11.0343 8.66577C10.8266 8.87344 10.71 9.1551 10.71 9.44879V20.5224H12.9247V16.093H15.6931C16.721 16.093 17.7068 15.6846 18.4337 14.9578C19.1605 14.2309 19.5688 13.2451 19.5688 12.2172C19.5688 11.1893 19.1605 10.2035 18.4337 9.47662C17.7068 8.74977 16.721 8.34143 15.6931 8.34143ZM15.6931 13.8782H12.9247V10.5562H15.6931C16.1336 10.5562 16.5561 10.7312 16.8676 11.0427C17.1791 11.3542 17.3541 11.7767 17.3541 12.2172C17.3541 12.6577 17.1791 13.0802 16.8676 13.3917C16.5561 13.7032 16.1336 13.8782 15.6931 13.8782Z" fill="#333333" />
		</g>
		<defs>
			<clipPath id="clip0">
				<rect width="26.5767" height="26.5767" fill="white" transform="translate(0.744141 0.589478)" />
			</clipPath>
		</defs>
	</symbol>
	<symbol id="skyscrapper">
		<path d="M26.7012 10.8596V15.7258C26.7012 16.3495 27.668 16.3495 27.668 15.7258V10.8596C27.668 10.236 26.7012 10.236 26.7012 10.8596Z" fill="#333333" />
		<path d="M29.0781 16.2092C29.3453 16.2092 29.5615 15.9927 29.5615 15.7258V10.8596C29.5615 10.236 28.5947 10.236 28.5947 10.8596V15.7258C28.5947 15.9927 28.8112 16.2092 29.0781 16.2092Z" fill="#333333" />
		<path d="M16.9453 5.73633C16.6784 5.73633 16.4619 5.95285 16.4619 6.21973V21.2373C16.4619 21.5042 16.6784 21.7207 16.9453 21.7207C17.2124 21.7207 17.4287 21.5042 17.4287 21.2373V6.21973C17.4287 5.95285 17.2122 5.73633 16.9453 5.73633Z" fill="#333333" />
		<path d="M12.1992 5.73633C11.9321 5.73633 11.7158 5.95285 11.7158 6.21973V21.2373C11.7158 21.5042 11.9321 21.7207 12.1992 21.7207C12.4661 21.7207 12.6826 21.5042 12.6826 21.2373V6.21973C12.6826 5.95285 12.4661 5.73633 12.1992 5.73633Z" fill="#333333" />
		<path d="M14.6401 5.73633C14.373 5.73633 14.1567 5.95285 14.1567 6.21973V21.2373C14.1567 21.5042 14.373 21.7207 14.6401 21.7207C14.907 21.7207 15.1235 21.5042 15.1235 21.2373V6.21973C15.1235 5.95285 14.907 5.73633 14.6401 5.73633Z" fill="#333333" />
		<path d="M2.8437 26.3495H8.75929C9.38267 26.3495 9.38267 25.3827 8.75929 25.3827H2.8437C2.22007 25.3827 2.22007 26.3495 2.8437 26.3495Z" fill="#333333" />
		<path d="M2.8437 28.4003H8.75929C9.38267 28.4003 9.38267 27.4335 8.75929 27.4335H2.8437C2.22007 27.4335 2.22007 28.4003 2.8437 28.4003Z" fill="#333333" />
		<path d="M2.8437 30.4502H8.75929C9.38267 30.4502 9.38267 29.4834 8.75929 29.4834H2.8437C2.22007 29.4834 2.22007 30.4502 2.8437 30.4502Z" fill="#333333" />
		<path d="M3.85662 9.80524C3.2345 9.80524 3.23349 10.772 3.85662 10.772C4.47849 10.772 4.47975 9.80524 3.85662 9.80524Z" fill="#333333" />
		<path d="M5.80047 9.80524C5.17834 9.80524 5.17734 10.772 5.80047 10.772C6.42259 10.772 6.42359 9.80524 5.80047 9.80524Z" fill="#333333" />
		<path d="M7.74529 9.80524C7.12317 9.80524 7.12216 10.772 7.74529 10.772C8.36741 10.772 8.36842 9.80524 7.74529 9.80524Z" fill="#333333" />
		<path d="M3.85662 11.9556C3.2345 11.9556 3.23349 12.9224 3.85662 12.9224C4.47849 12.9224 4.47975 11.9556 3.85662 11.9556Z" fill="#333333" />
		<path d="M5.80047 11.9556C5.17834 11.9556 5.17734 12.9224 5.80047 12.9224C6.42259 12.9224 6.42359 11.9556 5.80047 11.9556Z" fill="#333333" />
		<path d="M7.74529 11.9556C7.12317 11.9556 7.12216 12.9224 7.74529 12.9224C8.36741 12.9224 8.36842 11.9556 7.74529 11.9556Z" fill="#333333" />
		<path d="M3.85662 14.1081C3.2345 14.1081 3.23349 15.0749 3.85662 15.0749C4.47849 15.0749 4.47975 14.1081 3.85662 14.1081Z" fill="#333333" />
		<path d="M5.80047 14.1081C5.17834 14.1081 5.17734 15.0749 5.80047 15.0749C6.42259 15.0749 6.42359 14.1081 5.80047 14.1081Z" fill="#333333" />
		<path d="M7.74529 14.1081C7.12317 14.1081 7.12216 15.0749 7.74529 15.0749C8.36741 15.0749 8.36842 14.1081 7.74529 14.1081Z" fill="#333333" />
		<path d="M3.85662 16.2611C3.2345 16.2611 3.23349 17.2279 3.85662 17.2279C4.47849 17.2279 4.47975 16.2611 3.85662 16.2611Z" fill="#333333" />
		<path d="M5.80047 16.2611C5.17834 16.2611 5.17734 17.2279 5.80047 17.2279C6.42259 17.2279 6.42359 16.2611 5.80047 16.2611Z" fill="#333333" />
		<path d="M7.74529 16.2611C7.12317 16.2611 7.12216 17.2279 7.74529 17.2279C8.36741 17.2279 8.36842 16.2611 7.74529 16.2611Z" fill="#333333" />
		<path d="M3.85662 18.4141C3.2345 18.4141 3.23349 19.3809 3.85662 19.3809C4.47849 19.3809 4.47975 18.4141 3.85662 18.4141Z" fill="#333333" />
		<path d="M5.80047 18.4141C5.17834 18.4141 5.17734 19.3809 5.80047 19.3809C6.42259 19.3809 6.42359 18.4141 5.80047 18.4141Z" fill="#333333" />
		<path d="M7.74529 18.4141C7.12317 18.4141 7.12216 19.3809 7.74529 19.3809C8.36741 19.3809 8.36842 18.4141 7.74529 18.4141Z" fill="#333333" />
		<path d="M3.85662 20.5645C3.2345 20.5645 3.23349 21.5312 3.85662 21.5312C4.47849 21.5312 4.47975 20.5645 3.85662 20.5645Z" fill="#333333" />
		<path d="M5.80047 20.5645C5.17834 20.5645 5.17734 21.5312 5.80047 21.5312C6.42259 21.5312 6.42359 20.5645 5.80047 20.5645Z" fill="#333333" />
		<path d="M7.74529 20.5645C7.12317 20.5645 7.12216 21.5312 7.74529 21.5312C8.36741 21.5312 8.36842 20.5645 7.74529 20.5645Z" fill="#333333" />
		<path d="M24.1592 21.1037C24.4263 21.1037 24.6426 20.8875 24.6426 20.6203V19.2739C24.6426 18.6502 23.6758 18.6502 23.6758 19.2739V20.6203C23.6758 20.8875 23.8921 21.1037 24.1592 21.1037Z" fill="#333333" />
		<path d="M21.7515 24.2629C22.0183 24.2629 22.2349 24.0466 22.2349 23.7795V19.3035C22.2354 18.6542 21.2708 18.6446 21.2681 19.3035V23.7795C21.2681 24.0466 21.4843 24.2629 21.7515 24.2629Z" fill="#333333" />
		<path d="M24.1592 27.327C24.4263 27.327 24.6426 27.1105 24.6426 26.8436V22.4321C24.6426 21.8084 23.6758 21.8084 23.6758 22.4321V26.8436C23.6758 27.1105 23.8921 27.327 24.1592 27.327Z" fill="#333333" />
		<path d="M21.7515 27.4201C22.0183 27.4201 22.2349 27.2039 22.2349 26.9368V25.5903C22.2349 24.9667 21.2681 24.9667 21.2681 25.5903V26.9368C21.2681 27.2039 21.4843 27.4201 21.7515 27.4201Z" fill="#333333" />
		<path d="M21.7515 30.5784C22.0183 30.5784 22.2349 30.3621 22.2349 30.095V28.7485C22.2349 28.1249 21.2681 28.1249 21.2681 28.7485V30.095C21.2681 30.3621 21.4843 30.5784 21.7515 30.5784Z" fill="#333333" />
		<path d="M24.1592 30.5784C24.4263 30.5784 24.6426 30.3621 24.6426 30.095V28.7485C24.6426 28.1249 23.6758 28.1249 23.6758 28.7485V30.095C23.6758 30.3621 23.8921 30.5784 24.1592 30.5784Z" fill="#333333" />
		<path d="M32.9718 8.18504L32.2628 6.187C32.1943 5.99414 32.0118 5.86523 31.8071 5.86523H30.8995L28.6842 2.13778C28.597 1.99125 28.4389 1.90137 28.2685 1.90137H27.6685V0.483398C27.6685 -0.140236 26.7017 -0.140236 26.7017 0.483398V1.90137H25.8266C25.6468 1.90137 25.4819 2.00132 25.3983 2.16044L23.4579 5.86523H22.5631C22.3587 5.86523 22.1762 5.99414 22.1077 6.187L21.3987 8.18504C21.2894 8.49321 21.5326 8.83008 21.8541 8.83008H22.5918V13.2995L19.7667 10.9253V3.6416C19.7667 3.37473 19.5502 3.1582 19.2833 3.1582H18.0126V0.483398C18.0126 0.216522 17.7964 0 17.5292 0H11.6136C11.3468 0 11.1302 0.216522 11.1302 0.483398V3.1582H9.85982C9.59269 3.1582 9.37642 3.37473 9.37642 3.6416V7.31795H8.40962V2.54892C8.40962 2.19997 8.02416 1.95953 7.70995 2.11663L3.46008 4.24358C3.29642 4.32566 3.19295 4.49284 3.19295 4.67587V7.31795H1.7848C1.51767 7.31795 1.3014 7.53447 1.3014 7.80135V22.8972H0.547852C0.280724 22.8972 0.0644531 23.1135 0.0644531 23.3806V27.8438C0.0644531 28.4674 1.03125 28.4674 1.03125 27.8438V23.864H10.5713V32.0332H1.03125V30.1641C1.03125 29.5404 0.0644531 29.5404 0.0644531 30.1641V32.5166C0.0644531 32.7835 0.280724 33 0.547852 33H27.7468C28.3705 33 28.3705 32.0332 27.7468 32.0332H27.1096V17.3218C27.1096 17.179 27.0464 17.0436 26.9371 16.9517L25.7274 15.9348C25.7576 15.8718 25.775 15.8013 25.775 15.7266V10.8604C25.775 10.2367 24.8082 10.2367 24.8082 10.8604V15.1623L23.5586 14.1122V8.8623H30.8116V32.0332H30.196C29.5724 32.0332 29.5724 33 30.196 33H31.295C31.5621 33 31.7784 32.7835 31.7784 32.5166V8.83008H32.5161C32.8369 8.83008 33.0806 8.4922 32.9718 8.18504ZM12.097 0.966797H17.0458V3.1582H12.097V0.966797ZM4.15974 4.97472L7.44283 3.33142V7.31795H4.15974V4.97472ZM2.2682 22.8972V8.28474H3.60661C3.62952 8.28802 3.65268 8.29053 3.67635 8.29053H7.92622C7.95014 8.29053 7.9733 8.28802 7.99622 8.28474H9.33463V22.8972H2.2682ZM26.1428 32.0332H19.7667V16.8867C19.7667 16.6198 19.5504 16.4033 19.2833 16.4033C19.0162 16.4033 18.7999 16.6198 18.7999 16.8867V32.0332H11.5381V23.3806C11.5381 23.1135 11.3218 22.8972 11.0547 22.8972H10.3432V4.125H18.7999V14.4375C18.7999 14.7044 19.0162 14.9209 19.2833 14.9209C19.5504 14.9209 19.7667 14.7044 19.7667 14.4375V12.1882L26.1428 17.5469V32.0332ZM26.1191 2.86816H27.9936L29.7748 5.86523H24.5493L26.1191 2.86816ZM22.5387 7.86328L22.9048 6.83203H31.4657L31.8318 7.86328H22.5387Z" fill="#333333" />
		<path d="M29.0949 17.8213C28.4728 17.8213 28.4718 18.7881 29.0949 18.7881C29.717 18.7881 29.718 17.8213 29.0949 17.8213Z" fill="#333333" />
		<path d="M29.0949 20.155C28.4728 20.155 28.4718 21.1218 29.0949 21.1218C29.717 21.1218 29.718 20.155 29.0949 20.155Z" fill="#333333" />
		<path d="M29.0949 22.4866C28.4728 22.4866 28.4718 23.4534 29.0949 23.4534C29.717 23.4534 29.718 22.4866 29.0949 22.4866Z" fill="#333333" />
		<path d="M29.0949 24.822C28.4728 24.822 28.4718 25.7888 29.0949 25.7888C29.717 25.7888 29.718 24.822 29.0949 24.822Z" fill="#333333" />
		<path d="M29.0949 27.1536C28.4728 27.1536 28.4718 28.1204 29.0949 28.1204C29.717 28.1204 29.718 27.1536 29.0949 27.1536Z" fill="#333333" />
		<path d="M29.0949 29.4873C28.4728 29.4873 28.4718 30.4541 29.0949 30.4541C29.717 30.4541 29.718 29.4873 29.0949 29.4873Z" fill="#333333" />
	</symbol>
	<symbol id="coffee-shop">
		<path d="M15.9995 8.50018C17.1255 8.50018 18.108 7.87568 18.6205 6.95568C18.746 6.98068 18.872 7.00018 18.9995 7.00018C20.1025 7.00018 20.9995 6.10318 20.9995 5.00018C20.9995 3.89568 20.099 2.98868 18.9995 3.00268V2.50018H12.9995V5.50018C12.9995 7.15468 14.345 8.50018 15.9995 8.50018ZM19.9995 5.00018C19.9995 5.56468 19.5075 6.01218 18.956 5.98768C18.9825 5.82868 18.9995 5.66668 18.9995 5.50018V4.00018C19.551 4.00018 19.9995 4.44868 19.9995 5.00018ZM13.9995 3.50018H17.9995V5.50018C17.9995 6.60318 17.1025 7.50018 15.9995 7.50018C14.8965 7.50018 13.9995 6.60318 13.9995 5.50018V3.50018Z" fill="#333333" />
		<path d="M30 6.50006H22.544L24.1455 2.76356L23.724 2.55256C23.556 2.46906 19.577 0.500061 16 0.500061C12.423 0.500061 8.444 2.46906 8.2765 2.55256L7.855 2.76356L9.456 6.50006H2C1.173 6.50006 0.5 7.17306 0.5 8.00006V11.0001C0.5 11.6511 0.9195 12.2011 1.5 12.4081V31.5001H30.5V12.4081C31.0805 12.2011 31.5 11.6511 31.5 11.0001V8.00006C31.5 7.17306 30.827 6.50006 30 6.50006ZM30 7.50006C30.2755 7.50006 30.5 7.72456 30.5 8.00006V8.50006H21.687L22.1155 7.50006H30ZM25.5 11.5001V9.50006H27.5V11.5001H25.5ZM2 11.5001C1.7245 11.5001 1.5 11.2756 1.5 11.0001V9.50006H3.5V11.5001H2ZM4.5 9.50006H6.5V11.5001H4.5V9.50006ZM7.5 9.50006H9.5V11.5001H7.5V9.50006ZM10.5 9.50006H10.742L11.1705 10.5001H12.5V11.5001H10.5V9.50006ZM13.5 10.5001H15.5V11.5001H13.5V10.5001ZM16.5 10.5001H18.5V11.5001H16.5V10.5001ZM19.5 10.5001H20.8295L21.258 9.50006H21.5V11.5001H19.5V10.5001ZM22.5 9.50006H24.5V11.5001H22.5V9.50006ZM16 1.50006C18.6895 1.50006 21.7445 2.75206 22.8495 3.24856L20.1705 9.50006H11.8295L9.1505 3.24806C10.2545 2.75156 13.306 1.50006 16 1.50006ZM2 7.50006H9.8845L10.313 8.50006H1.5V8.00006C1.5 7.72456 1.7245 7.50006 2 7.50006ZM6.207 30.5001L7 29.7071L7.793 30.5001H6.207ZM15.207 30.5001L16 29.7071L16.793 30.5001H15.207ZM24.207 30.5001L25 29.7071L25.793 30.5001H24.207ZM27.207 30.5001L25.707 29.0001L27.207 27.5001H27.5C28.0515 27.5001 28.5 27.0516 28.5 26.5001V25.5001C28.5 24.9486 28.0515 24.5001 27.5 24.5001H22.5C21.9485 24.5001 21.5 24.9486 21.5 25.5001V26.5001C21.5 27.0516 21.9485 27.5001 22.5 27.5001H22.793L24.293 29.0001L22.793 30.5001H18.207L16.707 29.0001L18.207 27.5001H18.5C19.0515 27.5001 19.5 27.0516 19.5 26.5001V25.5001C19.5 24.9486 19.0515 24.5001 18.5 24.5001H13.5C12.9485 24.5001 12.5 24.9486 12.5 25.5001V26.5001C12.5 27.0516 12.9485 27.5001 13.5 27.5001H13.793L15.293 29.0001L13.793 30.5001H9.207L7.707 29.0001L9.207 27.5001H9.5C10.0515 27.5001 10.5 27.0516 10.5 26.5001V25.5001C10.5 24.9486 10.0515 24.5001 9.5 24.5001H4.5C3.9485 24.5001 3.5 24.9486 3.5 25.5001V26.5001C3.5 27.0516 3.9485 27.5001 4.5 27.5001H4.793L6.293 29.0001L4.793 30.5001H2.5V12.5001H29.5V30.5001H27.207ZM22.5 26.5001V25.5001H27.5L27.5005 26.5001H22.5ZM25.793 27.5001L25 28.2931L24.207 27.5001H25.793ZM13.5 26.5001V25.5001H18.5L18.5005 26.5001H13.5ZM16.793 27.5001L16 28.2931L15.207 27.5001H16.793ZM4.5 26.5001V25.5001H9.5L9.5005 26.5001H4.5ZM7.793 27.5001L7 28.2931L6.207 27.5001H7.793ZM30 11.5001H28.5V9.50006H30.5V11.0001C30.5 11.2756 30.2755 11.5001 30 11.5001Z" fill="#333333" />
		<path d="M3.49951 16.5001H4.49951V22.5001H27.4995V16.5001H28.4995V13.5001H3.49951V16.5001ZM10.4995 20.5001H12.4995V21.5001H10.4995V20.5001ZM9.49951 21.5001H7.49951V18.5001H9.49951V21.5001ZM20.4995 21.5001H19.4995V19.5001H20.4995V21.5001ZM24.4995 21.5001H23.4995V19.5001H24.4995V21.5001ZM26.4995 21.5001H25.4995V18.5001H22.4995V21.5001H21.4995V18.5001H18.4995V21.5001H13.4995V19.5001H10.4995V17.5001H6.49951V21.5001H5.49951V16.5001H26.4995V21.5001ZM4.49951 14.5001H27.4995V15.5001H4.49951V14.5001Z" fill="#333333" />
	</symbol>
	<symbol id="bus">
		<g clip-path="url(#clip0)">
			<path d="M9.5014 20.8002C9.27627 20.1634 8.67547 19.7365 8.00007 19.7335C7.32447 19.7363 6.7234 20.1632 6.4982 20.8002C6.36714 21.1437 6.36714 21.5234 6.4982 21.8669C6.7876 22.6962 7.69447 23.1339 8.5238 22.8445C8.98167 22.6847 9.3416 22.3247 9.5014 21.8669C9.6324 21.5233 9.6324 21.1437 9.5014 20.8002ZM8.00007 21.8669C7.70554 21.8669 7.46674 21.6281 7.46674 21.3335C7.46674 21.039 7.70554 20.8002 8.00007 20.8002C8.2946 20.8002 8.5334 21.039 8.5334 21.3335C8.5334 21.6281 8.2946 21.8669 8.00007 21.8669Z" fill="#333333" />
			<path d="M6.39948 9.06848H2.13281V14.4018H11.7328V9.06848H6.39948ZM6.39948 13.3351H3.19948V10.1351H6.39948V13.3351ZM10.6661 13.3351H7.46615V10.1351H10.6661V13.3351Z" fill="#333333" />
			<path d="M31.8773 13.4657L29.5664 7.91898C29.3188 7.32185 28.7355 6.93312 28.0891 6.93445H1.6C0.716333 6.93445 0 7.65078 0 8.53445V20.2678C0 21.1515 0.716333 21.8678 1.6 21.8678H4.30933C4.60207 23.9061 6.49173 25.3211 8.53007 25.0284C10.1683 24.7931 11.4554 23.506 11.6907 21.8678H20.3093C20.6021 23.9061 22.4917 25.3211 24.5301 25.0284C26.1683 24.7931 27.4554 23.506 27.6907 21.8678H30.4C31.2837 21.8678 32 21.1515 32 20.2678V14.0811C32.0005 13.8699 31.9588 13.6606 31.8773 13.4657ZM29.3333 10.1345L30.6667 13.3345H25.6V10.1345H29.3333ZM10.6133 21.8678C10.3203 23.3111 8.91267 24.2435 7.46933 23.9505C6.026 23.6574 5.0936 22.2498 5.38667 20.8065C5.67973 19.3631 7.08733 18.4307 8.53067 18.7238C9.77253 18.976 10.6654 20.0673 10.6667 21.3345C10.6668 21.5135 10.6489 21.6923 10.6133 21.8678ZM12.8 20.8011H11.6907C11.3979 18.7628 9.50827 17.3478 7.46993 17.6405C5.83167 17.8758 4.5446 19.1629 4.30933 20.8011H1.6C1.30547 20.8011 1.06667 20.5623 1.06667 20.2678V16.5345H12.8V20.8011ZM18.1333 15.4678V20.8011H13.8667V10.1345H18.1333V15.4678ZM26.6133 21.8678C26.3203 23.3111 24.9127 24.2435 23.4693 23.9505C22.026 23.6574 21.0936 22.2498 21.3867 20.8065C21.6797 19.3631 23.0873 18.4307 24.5307 18.7238C25.7725 18.976 26.6654 20.0673 26.6667 21.3345C26.6668 21.5135 26.6489 21.6923 26.6133 21.8678ZM30.9333 20.2678C30.9333 20.5623 30.6945 20.8011 30.4 20.8011H27.6907C27.3979 18.7628 25.5083 17.3478 23.4699 17.6405C21.8317 17.8758 20.5446 19.1629 20.3093 20.8011H19.2V16.5345H30.9333V20.2678ZM30.9333 15.4678H19.2V9.06778H12.8V15.4678H1.06667V8.53445C1.06667 8.23992 1.30547 8.00112 1.6 8.00112H28.0891C28.3043 8.00112 28.4985 8.13045 28.5813 8.32912L28.8891 9.06778H20.2667V14.4011H30.9333V15.4678ZM24.5333 10.1345V13.3345H21.3333V10.1345H24.5333Z" fill="#333333" />
			<path d="M25.5014 20.8002C25.2763 20.1634 24.6755 19.7365 24.0001 19.7335C23.3245 19.7363 22.7234 20.1632 22.4982 20.8002C22.3671 21.1437 22.3671 21.5234 22.4982 21.8669C22.7876 22.6962 23.6945 23.1339 24.5238 22.8445C24.9817 22.6847 25.3416 22.3247 25.5014 21.8669C25.6324 21.5233 25.6324 21.1437 25.5014 20.8002ZM24.0001 21.8669C23.7055 21.8669 23.4667 21.6281 23.4667 21.3335C23.4667 21.039 23.7055 20.8002 24.0001 20.8002C24.2946 20.8002 24.5334 21.039 24.5334 21.3335C24.5334 21.6281 24.2946 21.8669 24.0001 21.8669Z" fill="#333333" />
		</g>
		<defs>
			<clipPath id="clip0">
				<rect width="32" height="32" fill="white" />
			</clipPath>
		</defs>
	</symbol>
	<symbol id="cctv">
		<g clip-path="url(#clip0)">
			<path d="M31.617 11.1375L8.063 2.4112C7.76173 2.29987 7.42701 2.45392 7.31593 2.75544C7.31568 2.75568 7.31568 2.75593 7.31544 2.75617L4.70801 9.85359C4.59717 10.1551 4.75172 10.4896 5.05323 10.6004H5.05372L7.78395 11.6029L7.18238 13.2418C7.07179 13.5433 7.22633 13.8773 7.52784 13.9881L12.9893 15.9932L12.5879 17.0858C12.2232 18.0643 12.5635 19.1659 13.417 19.7677V22.7364H5.58936C5.21046 21.8702 4.43506 21.2413 3.50904 21.0494V19.8277C3.50904 19.5064 3.24878 19.2459 2.92725 19.2459H0.581788C0.260498 19.2459 0 19.5064 0 19.8277V29.1356C0 29.4571 0.260498 29.7174 0.581788 29.7174H2.92725C3.24878 29.7174 3.50904 29.4571 3.50904 29.1356V27.9142C4.43506 27.722 5.21046 27.0934 5.58936 26.2269H13.417V26.8087C13.417 27.7726 14.1983 28.5541 15.1621 28.5541C16.126 28.5541 16.9075 27.7726 16.9075 26.8087V20.3641C17.4363 20.1019 17.8447 19.6471 18.0484 19.0929L18.4497 18.0003L23.3648 19.8038C23.429 19.8275 23.4966 19.8394 23.565 19.8394C23.8089 19.8394 24.0271 19.6873 24.1114 19.4583L24.3294 18.8643C26.2224 19.2205 28.0457 17.9747 28.4016 16.0819C28.5332 15.3824 28.4478 14.6595 28.1568 14.0101L31.6834 12.1993C31.9693 12.0528 32.0823 11.7022 31.9358 11.4163C31.8694 11.2865 31.7566 11.1864 31.6199 11.1358L31.617 11.1375ZM14.5803 20.2977L15.062 20.4723C15.2813 20.5509 15.5113 20.596 15.7439 20.606V22.7364H14.5803V20.2977ZM2.34571 28.5541H1.16358V20.4095H2.34571V28.5541ZM4.67261 25.0636C4.67164 25.8028 4.20582 26.4618 3.50904 26.7093V22.2542C4.20582 22.5016 4.67164 23.1605 4.67261 23.9V25.0636ZM5.85426 23.9H15.7439V25.0636H5.85426V23.9ZM15.1621 27.3905C14.8408 27.3905 14.5803 27.13 14.5803 26.8087V26.2269H15.7439V26.8087C15.7439 27.13 15.4834 27.3905 15.1621 27.3905ZM17.3577 17.5997L16.9563 18.6922C16.7346 19.2948 16.0664 19.6038 15.4634 19.3827L14.3692 18.9818C13.7661 18.7603 13.4566 18.0919 13.678 17.4886C13.678 17.4886 13.678 17.4886 13.678 17.4884L14.0796 16.3966L17.0283 17.4791L17.3577 17.5997ZM23.22 18.513L8.47486 13.0985L8.87648 12.0059L17.6138 15.2144C17.8206 15.2896 18.0525 15.2425 18.2134 15.0921L19.846 13.5553L24.4231 15.2364L23.22 18.513ZM27.1534 16.2393C26.7847 17.2332 25.7932 17.8543 24.7383 17.752L25.6372 15.3033L27.1055 14.5472C27.3352 15.0848 27.3523 15.6898 27.1534 16.2393ZM25.1897 14.2279C25.159 14.2306 25.1285 14.2359 25.0984 14.244L19.9116 12.3394C19.7049 12.2635 19.4729 12.3106 19.3123 12.4615L17.6778 13.9986L6.00074 9.71053L8.20631 3.70515L29.9729 11.7694L25.1897 14.2279Z" fill="#333333" />
			<path d="M10.7705 10.2223L11.1714 9.13007L12.2637 9.53119L11.8626 10.6235L10.7705 10.2223Z" fill="#333333" />
			<path d="M12.9546 11.0242L13.3555 9.93195L14.4478 10.3331L14.0466 11.4251L12.9546 11.0242Z" fill="#333333" />
			<path d="M15.1392 11.8265L15.5403 10.7343L16.6323 11.1354L16.2312 12.2277L15.1392 11.8265Z" fill="#333333" />
		</g>
		<defs>
			<clipPath id="clip0">
				<rect width="32" height="32" fill="white" />
			</clipPath>
		</defs>
	</symbol>
	<symbol id="hospital">
		<path d="M13.1626 20.5001H15.8859V19.5001H16.7936V16.5001H15.8859V15.5001H13.1626V16.5001H12.2549V19.5001H13.1626V20.5001ZM13.1626 17.5001H14.0704V16.5001H14.9781V17.5001H15.8859V18.5001H14.9781V19.5001H14.0704V18.5001H13.1626V17.5001Z" fill="#333333" />
		<path d="M26.7783 21.8486V6.84856L24.7518 3.50006H23.1473V1.50006H22.2396V3.50006H21.3318V1.50006H20.4241V3.50006H19.5163V2.50006H18.6086V3.50006H17.7008V0.500061H16.7931V3.50006H15.8853V1.50006H14.9776V3.50006H14.0698V0.500061H13.1621V3.50006H11.3466V9.50006H10.4389V6.50006H9.5311V9.50006H8.62335V7.50006H7.71561V4.50006H6.80786V7.50006H5.90011V5.50006H4.99236V7.50006H4.08461V9.50006H3.17686V21.5001H2.48016L0.453613 24.8486V31.5001H28.5938V24.8486L26.7783 21.8486ZM11.3466 24.5001H14.0698V30.5001H11.3466V24.5001ZM10.4389 30.5001H9.5311V24.5001H10.4389V30.5001ZM14.9776 24.5001H17.7008V30.5001H14.9776V24.5001ZM18.6086 24.5001H19.5163V30.5001H18.6086V24.5001ZM8.62335 23.5001V30.5001H7.71561V21.5001H10.4389V22.5001H18.6086V21.5001H21.3318V30.5001H20.4241V23.5001H8.62335ZM10.4389 20.5001H7.71561V19.5001H10.4389V20.5001ZM17.7008 14.5001V21.5001H11.3466V14.5001H17.7008ZM18.6086 19.5001H21.3318V20.5001H18.6086V19.5001ZM22.2396 22.5001H26.0816L27.2921 24.5001H22.2396V22.5001ZM24.2661 4.50006L25.4766 6.50006H12.2544V4.50006H24.2661ZM12.2544 7.50006H25.8706V21.5001H22.2396V18.5001H18.6086V13.5001H13.1621V9.50006H12.2544V7.50006ZM4.99236 8.50006H7.71561V9.50006H4.99236V8.50006ZM4.08461 10.5001H12.2544V13.5001H10.4389V18.5001H6.80786V21.5001H4.08461V10.5001ZM2.96581 22.5001H6.80786V24.5001H1.75533L2.96581 22.5001ZM1.36136 25.5001H6.80786V30.5001H5.90011V26.5001H2.26911V30.5001H1.36136V25.5001ZM4.99236 30.5001H3.17686V27.5001H4.99236V30.5001ZM25.8706 30.5001H24.0551V27.5001H25.8706V30.5001ZM26.7783 30.5001V26.5001H23.1473V30.5001H22.2396V25.5001H27.6861V30.5001H26.7783Z" fill="#333333" />
		<path d="M4.99268 11.5H5.90043V12.5H4.99268V11.5Z" fill="#333333" />
		<path d="M6.80811 11.5H7.71585V12.5H6.80811V11.5Z" fill="#333333" />
		<path d="M10.4395 11.5H11.3472V12.5H10.4395V11.5Z" fill="#333333" />
		<path d="M8.62354 11.5H9.53128V12.5H8.62354V11.5Z" fill="#333333" />
		<path d="M8.62354 13.5001H9.53128V14.5001H8.62354V13.5001Z" fill="#333333" />
		<path d="M6.80811 13.5001H7.71585V14.5001H6.80811V13.5001Z" fill="#333333" />
		<path d="M4.99268 13.5001H5.90043V14.5001H4.99268V13.5001Z" fill="#333333" />
		<path d="M6.80811 15.5001H7.71585V16.5001H6.80811V15.5001Z" fill="#333333" />
		<path d="M8.62354 15.5001H9.53128V16.5001H8.62354V15.5001Z" fill="#333333" />
		<path d="M4.99268 15.5001H5.90043V16.5001H4.99268V15.5001Z" fill="#333333" />
		<path d="M4.99268 17.5002H5.90043V18.5002H4.99268V17.5002Z" fill="#333333" />
		<path d="M4.99268 19.5002H5.90043V20.5002H4.99268V19.5002Z" fill="#333333" />
		<path d="M24.9633 8.50006H14.0703V12.5001H24.9633V8.50006ZM24.0556 11.5001H14.9781V9.50006H24.0556V11.5001Z" fill="#333333" />
		<path d="M19.5171 17.5001H24.9636V13.5001H19.5171V17.5001ZM20.4248 14.5001H24.0558V16.5001H20.4248V14.5001Z" fill="#333333" />
	</symbol>
	<symbol id="shop-bag">
		<g clip-path="url(#clip0)">
			<path d="M23.4675 28.1202C25.6216 28.1202 27.374 26.3678 27.374 24.2138V21.7603C27.9544 21.5642 28.3735 21.0149 28.3735 20.3692C28.3735 19.5596 27.7149 18.9009 26.9052 18.9009C26.0956 18.9009 25.437 19.5596 25.437 20.3692C25.437 21.0149 25.8561 21.5641 26.4365 21.7603V24.2138C26.4365 25.8509 25.1046 27.1827 23.4675 27.1827C21.8304 27.1827 20.4985 25.8508 20.4985 24.2138V21.7603C21.0788 21.5641 21.498 21.0149 21.498 20.3692C21.498 19.5596 20.8393 18.9009 20.0297 18.9009C19.2202 18.9009 18.5615 19.5596 18.5615 20.3692C18.5615 21.0149 18.9807 21.5641 19.561 21.7603V24.2138C19.561 26.3678 21.3135 28.1202 23.4675 28.1202ZM26.9052 19.8384C27.1979 19.8384 27.436 20.0765 27.436 20.3691C27.436 20.6617 27.1979 20.8999 26.9052 20.8999C26.6126 20.8999 26.3745 20.6617 26.3745 20.3691C26.3745 20.0765 26.6126 19.8384 26.9052 19.8384ZM20.0297 19.8384C20.3224 19.8384 20.5604 20.0765 20.5604 20.3691C20.5604 20.6617 20.3223 20.8999 20.0297 20.8999C19.7372 20.8999 19.499 20.6617 19.499 20.3691C19.499 20.0765 19.7372 19.8384 20.0297 19.8384Z" fill="black" />
			<path d="M2.31799 31.9999H30.1117C30.829 31.9999 31.3879 31.376 31.3097 30.6634L30.7625 25.6695C30.7343 25.412 30.5033 25.2267 30.2454 25.2545C29.9881 25.2828 29.8024 25.5142 29.8306 25.7715L30.3778 30.7655C30.3951 30.924 30.2713 31.0624 30.1117 31.0624H16.8237H16.8231C16.6648 31.0624 16.5395 30.9253 16.557 30.7655L17.9089 18.4295C17.9238 18.2936 18.0382 18.191 18.175 18.191H28.7599C28.8967 18.191 29.0111 18.2936 29.026 18.4295L29.5909 23.584C29.6191 23.8413 29.8489 24.0269 30.1079 23.9989C30.3652 23.9707 30.551 23.7392 30.5228 23.4819L29.9579 18.3275C29.8908 17.7153 29.3758 17.2536 28.7599 17.2536H23.5739L22.85 10.6478C22.759 9.81706 22.0602 9.19067 21.2245 9.19067H19.3595V6.51767C19.3595 2.92382 16.4357 0 12.8419 0C9.24804 0 6.32421 2.92382 6.32421 6.51767V9.19067H4.45929C3.62358 9.19067 2.92475 9.81706 2.83375 10.6478L0.692506 30.1866C0.586566 31.1539 1.3454 31.9999 2.31799 31.9999ZM1.62447 30.2887L3.76571 10.7499C3.80459 10.3955 4.10278 10.1282 4.45935 10.1282H6.32428V11.8737C5.71188 12.072 5.26768 12.6475 5.26768 13.3251C5.26768 14.1662 5.95195 14.8504 6.79304 14.8504C7.63412 14.8504 8.31839 14.1662 8.31839 13.3251C8.31839 12.6475 7.87419 12.072 7.2618 11.8737V10.1282H11.7482C12.0071 10.1282 12.2169 9.91831 12.2169 9.65943C12.2169 9.40055 12.0071 9.19067 11.7482 9.19067H7.2618V6.51767C7.2618 3.44077 9.76505 0.937524 12.8419 0.937524C15.9188 0.937524 18.4221 3.44077 18.4221 6.51767V9.19067H13.9357C13.6768 9.19067 13.467 9.40055 13.467 9.65943C13.467 9.91831 13.6768 10.1282 13.9357 10.1282H18.4221V11.8737C17.8097 12.072 17.3656 12.6475 17.3656 13.3251C17.3656 14.1662 18.0498 14.8504 18.8908 14.8504C19.7319 14.8504 20.4162 14.1662 20.4162 13.3251C20.4162 12.6475 19.972 12.072 19.3596 11.8737V10.1282H21.2246C21.5811 10.1282 21.8793 10.3955 21.9182 10.7499L22.6308 17.2536H18.1751C17.5591 17.2536 17.044 17.7153 16.977 18.3275L15.6251 30.6635C15.6104 30.7978 15.6223 30.9487 15.6482 31.0625H2.31799C1.90235 31.0624 1.57915 30.7028 1.62447 30.2887ZM6.79297 12.7373C7.11717 12.7373 7.3808 13.001 7.3808 13.3251C7.3808 13.6492 7.11711 13.9129 6.79297 13.9129C6.46884 13.9129 6.20515 13.6492 6.20515 13.3251C6.20515 13.001 6.46878 12.7373 6.79297 12.7373ZM18.8908 12.7373C19.215 12.7373 19.4786 13.001 19.4786 13.3251C19.4786 13.6492 19.2149 13.9129 18.8908 13.9129C18.5666 13.9129 18.303 13.6492 18.303 13.3251C18.303 13.001 18.5667 12.7373 18.8908 12.7373Z" fill="black" />
		</g>
		<defs>
			<clipPath id="clip0">
				<rect width="32" height="32" fill="white" />
			</clipPath>
		</defs>
	</symbol>
	<symbol id="sadik">
		<g clip-path="url(#clip0)">
			<path d="M12.7526 28.3736C11.1738 28.6753 9.66555 28.9576 8.16375 29.24C6.16134 29.6187 4.15893 30.0102 2.15653 30.3632C1.05905 30.5557 0.154121 29.4262 0.487856 28.3223C0.526364 28.2067 0.577707 28.0976 0.629051 27.9693C0.199047 27.5585 -0.0897615 27.0772 0.0257619 26.4546C0.166957 25.6909 0.667559 25.2481 1.55966 25.0812C2.29772 24.94 3.03579 24.8116 3.77386 24.6769C4.92909 24.4651 5.72492 25.0876 5.79552 26.2621C5.79552 26.307 5.80835 26.352 5.82761 26.4418C6.09716 26.3905 6.3603 26.3455 6.62343 26.2942C6.89299 26.2428 7.16254 26.1915 7.48344 26.1337C7.28449 25.0876 7.09195 24.0672 6.88015 22.9697C6.2191 23.0852 5.55805 23.1751 4.90342 23.3163C4.51834 23.3997 4.22953 23.2906 4.15252 22.9248C4.0755 22.5525 4.36431 22.3856 4.69804 22.3215C6.38597 22.0006 8.06748 21.6733 9.7554 21.3588C10.0891 21.2946 10.3523 21.423 10.4036 21.7824C10.4485 22.1097 10.2688 22.2958 9.94794 22.36C9.27406 22.4948 8.60017 22.6295 7.89419 22.7707C8.09957 23.8425 8.29211 24.8694 8.49748 25.9412C9.51152 25.7487 10.4871 25.569 11.4626 25.3828C11.5653 25.3636 11.6744 25.3443 11.7771 25.3251C12.5151 25.1839 13.2019 25.0812 13.7731 24.4073C14.6202 23.3933 16.1605 23.1879 17.3222 23.8361C17.9383 24.1827 18.4774 24.1057 19.1192 23.8875C18.7341 22.9055 18.3426 21.93 17.9576 20.9544C17.7265 20.3704 17.4826 19.7864 17.258 19.2023C17.1168 18.8365 16.9114 18.6119 16.4686 18.6632C16.1349 18.7017 15.7947 18.6696 15.3968 18.6696C15.3968 18.875 15.3968 19.0547 15.3968 19.2344C15.3968 20.1714 15.3968 21.1149 15.3968 22.0519C15.3968 22.6552 15.2299 22.9248 14.8705 22.9119C14.524 22.9055 14.3763 22.6616 14.3763 22.0776C14.3763 17.7519 14.3763 13.4262 14.3763 9.10045C14.3763 8.92075 14.3763 8.74104 14.3763 8.51C14.1581 8.51 13.9784 8.51 13.7923 8.51C9.51152 8.51 5.23074 8.51 0.94995 8.51C0.840844 8.51 0.718903 8.54209 0.629051 8.50358C0.404422 8.40731 0.0771057 8.32388 0.012926 8.15701C-0.0512537 7.98372 0.0835237 7.64357 0.243973 7.49596C1.77145 6.03908 3.31818 4.60787 4.85849 3.17024C5.89179 2.20755 6.9315 1.23844 7.96479 0.27574C8.35629 -0.0900842 8.56166 -0.10292 8.94674 0.256486C11.5396 2.66964 14.126 5.07638 16.7061 7.50238C16.8601 7.64999 16.9756 7.98372 16.9179 8.16984C16.8665 8.32388 16.552 8.44582 16.3338 8.49074C16.0514 8.54209 15.7562 8.50358 15.4289 8.50358C15.4289 10.814 15.4289 13.0924 15.4289 15.4478C16.1284 15.4478 16.828 15.4478 17.5276 15.4478C18.8497 15.4478 19.2283 15.6981 19.7225 16.9047C20.0049 17.585 20.3001 18.2589 20.544 18.952C20.6403 19.2216 20.7686 19.2794 21.0189 19.2344C22.3731 18.9713 23.7273 18.7146 25.0815 18.4514C25.2035 18.4258 25.3254 18.4129 25.4409 18.3808C25.8003 18.291 26.0635 18.4129 26.1276 18.7852C26.1982 19.1702 25.9351 19.3435 25.6014 19.4077C24.9596 19.5296 24.3114 19.6452 23.6246 19.7671C23.8236 20.8261 24.0161 21.8465 24.2215 22.9504C24.7863 22.8413 25.3318 22.7451 25.8838 22.6424C25.5436 21.4294 25.8966 20.5822 26.84 20.2998C27.1481 20.21 27.469 20.1714 27.7835 20.1073C28.3418 19.9982 28.9002 19.9083 29.4522 19.7864C30.8769 19.4719 31.9167 20.7426 31.2877 22.1418C31.8396 22.7065 32.1092 23.3548 31.7177 24.1313C31.4802 24.5998 31.0952 24.8694 30.5753 24.9721C28.6627 25.3315 26.7502 25.7037 24.8376 26.0696C24.4076 26.153 23.9712 26.2364 23.4899 26.3263C23.7915 27.0836 24.0482 27.796 24.3755 28.4827C24.459 28.656 24.7478 28.7972 24.9596 28.8293C25.3511 28.8871 25.7618 28.8293 26.1597 28.8485C27.0326 28.8935 27.7 29.5994 27.6808 30.4466C27.6615 31.313 27.0005 31.9677 26.1084 31.9805C25.2291 31.9933 24.3499 31.9933 23.477 31.9869C22.6876 31.9805 22.1934 31.6211 21.8982 30.8766C21.3976 29.6123 20.8906 28.3415 20.39 27.0772C20.3707 27.0387 20.3386 27.0002 20.3001 26.936C19.9921 26.9938 19.6647 27.013 19.3759 27.1221C19.2668 27.1606 19.1706 27.3981 19.1706 27.5521C19.1577 28.7523 19.1641 29.9524 19.1641 31.1526C19.1641 31.8522 19.0294 31.9869 18.3362 31.9869C16.7382 31.9869 15.1337 31.9869 13.5356 31.9869C12.9066 31.9869 12.7654 31.8393 12.759 31.1911C12.7526 30.2733 12.7526 29.3556 12.7526 28.3736ZM1.79712 7.45103C6.30895 7.45103 10.6732 7.45103 15.1593 7.45103C12.8874 5.32668 10.6924 3.27935 8.48465 1.21276C6.26403 3.28577 4.0755 5.32668 1.79712 7.45103ZM18.0859 30.9536C18.0859 29.4518 18.0923 28.0078 18.0859 26.5573C18.0795 25.4534 17.0847 24.51 15.9487 24.5164C14.8063 24.5228 13.8372 25.4663 13.8372 26.583C13.8308 27.9051 13.8372 29.2272 13.8372 30.5557C13.8372 30.6905 13.8565 30.8189 13.8629 30.9536C15.2813 30.9536 16.6611 30.9536 18.0859 30.9536ZM18.7341 25.0748C18.8112 25.2802 18.9074 25.4406 18.9395 25.6203C19.0165 26.0182 19.1898 26.1209 19.607 26.0375C21.9495 25.569 24.2985 25.139 26.6411 24.6897C27.8862 24.4522 29.1313 24.2019 30.3828 23.9645C30.7999 23.8875 30.9155 23.6115 30.8192 23.2585C30.7357 22.9183 30.4726 22.8285 30.1389 22.8991C29.3302 23.0595 28.5151 23.2071 27.7065 23.3612C25.6591 23.7463 23.6182 24.1313 21.5709 24.5164C20.6274 24.6897 19.6904 24.8822 18.7341 25.0748ZM12.7526 26.2043C12.2135 26.307 11.6872 26.3969 11.1609 26.4996C8.79913 26.9488 6.43731 27.3981 4.0755 27.8473C3.33743 27.9885 2.59937 28.1297 1.86772 28.2902C1.52115 28.3672 1.37995 28.6239 1.46339 28.9512C1.5404 29.2465 1.77145 29.4005 2.09877 29.3556C2.29772 29.3235 2.49026 29.2721 2.6828 29.2336C5.70567 28.6624 8.73495 28.0976 11.7578 27.52C12.7333 27.3339 12.7333 27.3275 12.7911 26.3263C12.7975 26.3006 12.7847 26.2878 12.7526 26.2043ZM15.4289 17.6171C15.7755 17.6171 16.0899 17.6107 16.4108 17.6171C17.38 17.6299 17.8613 17.9829 18.2207 18.8814C18.8561 20.4859 19.5043 22.0904 20.1589 23.7142C20.5248 23.6564 20.8649 23.6051 21.2628 23.5409C21.1473 23.2457 21.051 22.9889 20.9548 22.7386C20.2039 20.8453 19.453 18.952 18.6892 17.0651C18.6122 16.8726 18.4197 16.5838 18.2721 16.5774C17.3286 16.5325 16.3787 16.5517 15.4353 16.5517C15.4289 16.9304 15.4289 17.2513 15.4289 17.6171ZM21.3655 26.7435C21.8918 28.0591 22.3924 29.3427 22.9315 30.6071C23.0021 30.7804 23.2973 30.9472 23.4963 30.9601C24.337 30.9986 25.1842 30.9729 26.0314 30.9793C26.3972 30.9793 26.6154 30.7996 26.6668 30.453C26.7117 30.1578 26.3972 29.8818 26.025 29.8754C25.7041 29.8626 25.3767 29.8754 25.0558 29.8754C24.1445 29.869 23.6696 29.5417 23.3422 28.7009C23.0534 27.9821 22.7582 27.2633 22.463 26.5381C22.0907 26.6023 21.7506 26.6664 21.3655 26.7435ZM21.0831 20.2741C21.4104 21.0892 21.7185 21.8401 22.0137 22.591C22.3154 23.3483 22.3154 23.3483 23.1048 23.1751C23.1176 23.1751 23.1305 23.1558 23.2075 23.0788C23.0149 22.0776 22.816 21.025 22.617 19.9661C22.0715 20.0752 21.6094 20.1714 21.0831 20.2741ZM30.0298 20.7426C28.9772 20.948 28.053 21.1085 27.1417 21.3074C26.8272 21.378 26.7053 21.654 26.7823 21.9621C26.8657 22.2958 27.1224 22.4306 27.4497 22.3728C27.8862 22.2958 28.3226 22.1995 28.759 22.1161C29.1633 22.0391 29.5741 21.9877 29.9784 21.8915C30.2865 21.8144 30.5496 21.6155 30.4534 21.2753C30.3956 21.0507 30.1581 20.8903 30.0298 20.7426ZM4.10759 25.6588C3.20907 25.8321 2.30414 25.9925 1.40563 26.1979C1.07189 26.2749 1.01413 26.5702 1.08473 26.8654C1.16174 27.1863 1.41204 27.3018 1.72011 27.2441C2.56086 27.09 3.40161 26.9167 4.24237 26.7563C4.5761 26.6921 4.79431 26.4996 4.76222 26.1658C4.73013 25.8128 4.48625 25.646 4.10759 25.6588Z" fill="#333333" />
			<path d="M12.7207 14.9345C12.7207 17.277 10.8274 19.1896 8.47844 19.2024C6.17439 19.2153 4.20407 17.2578 4.22974 14.9345C4.25541 12.5919 6.01394 10.6793 8.47844 10.6793C11.052 10.6729 12.7528 12.7652 12.7207 14.9345ZM8.49127 11.7383C6.97663 11.6292 5.2887 12.9192 5.24378 14.9216C5.20527 16.693 6.66857 18.0729 8.4656 18.1435C9.95457 18.2012 11.6938 16.9369 11.7003 14.9473C11.7131 13.0412 10.0765 11.6292 8.49127 11.7383Z" fill="#333333" />
			<path d="M2.57367 17.0971C2.57367 19.2664 2.57367 21.4357 2.57367 23.6049C2.57367 23.759 2.6186 23.9387 2.55442 24.0606C2.47098 24.2275 2.31053 24.465 2.16934 24.4778C1.98964 24.4906 1.75859 24.343 1.62381 24.1954C1.53396 24.0927 1.5468 23.8745 1.5468 23.7141C1.54038 19.2857 1.5468 14.8573 1.5468 10.4289C1.5468 10.3069 1.53396 10.1786 1.56605 10.063C1.64307 9.78065 1.81635 9.60095 2.13083 9.63946C2.42606 9.67155 2.56084 9.85125 2.56725 10.1401C2.57367 10.615 2.57367 11.0963 2.57367 11.5713C2.57367 13.4068 2.57367 15.2552 2.57367 17.0971Z" fill="#333333" />
			<path d="M23.4517 5.85301C23.4453 4.44105 24.6647 3.20239 26.0895 3.17671C27.495 3.15104 28.7722 4.41538 28.785 5.84017C28.7979 7.24571 27.5656 8.49079 26.1408 8.51005C24.6968 8.53572 23.4581 7.30989 23.4517 5.85301ZM26.1087 4.26135C25.2038 4.26135 24.4786 4.96091 24.4721 5.84017C24.4657 6.71302 25.2551 7.50243 26.128 7.48959C27.0137 7.47675 27.7004 6.75794 27.7004 5.85301C27.7004 4.90957 27.0458 4.26135 26.1087 4.26135Z" fill="#333333" />
			<path d="M21.8276 2.00217C21.9047 1.9059 21.9817 1.70694 22.1229 1.64918C22.2641 1.585 22.5144 1.59784 22.6299 1.68769C22.9444 1.93157 23.246 2.20755 23.4706 2.53486C23.5669 2.67606 23.5412 3.00337 23.4321 3.15099C23.3487 3.26651 22.9829 3.34353 22.8802 3.26651C22.5208 2.99054 22.2127 2.63755 21.8982 2.31023C21.8533 2.25889 21.8597 2.16262 21.8276 2.00217Z" fill="#333333" />
			<path d="M30.3762 9.6074C30.389 10.0053 29.9719 10.2877 29.6445 10.0502C29.2851 9.79352 28.9642 9.46621 28.7075 9.11322C28.47 8.79232 28.7653 8.37515 29.1632 8.38798C29.4648 8.3944 30.3634 9.29934 30.3762 9.6074Z" fill="#333333" />
			<path d="M21.3205 5.34603C21.4873 5.34603 21.6606 5.33961 21.8275 5.34603C22.1291 5.36528 22.3794 5.51931 22.3088 5.82738C22.2639 6.03275 22.0521 6.31514 21.866 6.36007C21.5002 6.4435 21.0894 6.4435 20.73 6.36007C20.5375 6.31514 20.2808 6.01991 20.2808 5.83379C20.2808 5.67334 20.5696 5.46155 20.7749 5.35886C20.9226 5.28185 21.1343 5.33961 21.3205 5.34603C21.3205 5.33961 21.3205 5.34603 21.3205 5.34603Z" fill="#333333" />
			<path d="M26.6217 10.6791C26.6217 10.8459 26.6795 11.0449 26.6089 11.1797C26.4998 11.385 26.3072 11.6803 26.1404 11.6867C25.9607 11.6931 25.6526 11.4364 25.6077 11.2503C25.5243 10.8716 25.5243 10.448 25.6141 10.0693C25.6526 9.89606 25.9671 9.68427 26.1661 9.67143C26.3072 9.66502 26.5062 9.94741 26.596 10.1399C26.6731 10.2811 26.6153 10.4929 26.6217 10.6791C26.6153 10.6791 26.6217 10.6791 26.6217 10.6791Z" fill="#333333" />
			<path d="M26.6156 1.07156C26.6156 1.23843 26.6734 1.44381 26.6028 1.57217C26.4937 1.77112 26.2947 2.05993 26.1343 2.05993C25.9481 2.05993 25.6529 1.80963 25.608 1.62351C25.5246 1.25769 25.5246 0.846935 25.608 0.487529C25.6529 0.301407 25.9289 0.0960324 26.1343 0.0446886C26.4423 -0.025909 26.5964 0.224392 26.6156 0.526036C26.6284 0.699322 26.6156 0.885443 26.6156 1.07156Z" fill="#333333" />
			<path d="M30.9477 6.38545C30.7616 6.38545 30.5755 6.41112 30.3958 6.37903C30.1006 6.32769 29.8695 6.16724 29.8823 5.8335C29.8952 5.50619 30.107 5.34574 30.4279 5.33932C30.7488 5.3329 31.0697 5.32648 31.3906 5.33932C31.6986 5.35216 31.9297 5.46768 31.9425 5.82067C31.9554 6.19291 31.7179 6.3341 31.4034 6.37903C31.2558 6.4047 31.1018 6.39187 30.9477 6.38545C30.9477 6.39187 30.9477 6.38545 30.9477 6.38545Z" fill="#333333" />
			<path d="M28.5664 2.86214C28.6563 2.68885 28.6883 2.56691 28.7718 2.48348C29.0221 2.21392 29.2788 1.95079 29.5548 1.70691C29.7794 1.50795 30.0811 1.48228 30.2351 1.73258C30.3378 1.90586 30.3442 2.24601 30.2351 2.41288C30.0426 2.71453 29.7537 2.97124 29.4649 3.19587C29.3366 3.29856 29.0799 3.33707 28.9258 3.27931C28.7718 3.21513 28.6819 3.00333 28.5664 2.86214Z" fill="#333333" />
			<path d="M23.06 8.38177C23.4322 8.38819 23.7275 8.73476 23.5349 9.00432C23.2461 9.41507 22.8482 9.76164 22.4631 10.0954C22.3797 10.166 22.0844 10.0825 21.9818 9.97985C21.8791 9.87716 21.8085 9.57552 21.8791 9.49208C22.1936 9.107 22.5594 8.76685 22.9188 8.42028C22.9509 8.38819 23.0279 8.39461 23.06 8.38177Z" fill="#333333" />
			<path d="M17.2581 26.6984C17.2517 27.4364 16.6548 28.0269 15.936 28.0076C15.2108 27.9884 14.6524 27.3979 14.6653 26.647C14.6781 25.9475 15.275 25.3506 15.9617 25.3442C16.6613 25.3442 17.2646 25.9731 17.2581 26.6984ZM15.9874 26.3261C15.8526 26.4737 15.6921 26.5764 15.705 26.647C15.7306 26.769 15.859 26.8652 15.9489 26.9743C16.0451 26.8781 16.1863 26.7946 16.2248 26.6727C16.2377 26.6085 16.0965 26.4866 15.9874 26.3261Z" fill="#333333" />
		</g>
		<defs>
			<clipPath id="clip0">
				<rect width="31.9422" height="32" fill="white" />
			</clipPath>
		</defs>
	</symbol>
</svg>
