<svg xmlns="http://www.w3.org/2000/svg">
	<symbol id="phone-painted-white">
		<path d="M4.03738 0.482295L5.90542 2.34683C6.62853 3.06858 6.62853 3.91063 5.90542 4.57223L4.51945 5.95559C5.12205 8.66217 7.35165 10.8274 10.0031 11.4289L11.389 10.0455C12.1121 9.38392 12.9558 9.38392 13.6186 10.0455L15.4867 11.9702C16.1495 12.5717 16.1495 13.4137 15.6072 14.0753L14.0404 16C5.60412 16 0 10.4064 0 1.98595L1.9283 0.422149C2.59115 -0.179313 3.43479 -0.119166 4.03738 0.482295Z" fill="white" />
	</symbol>
	<symbol id="select-btn" fill="none">
		<path d="M15.1406 14.1025H14.9542V3.62269C14.9542 3.45009 14.8142 3.31019 14.6417 3.31019H10.5264V0.3125C10.5264 0.139906 10.3865 0 10.2139 0H1.35834C1.18575 0 1.04584 0.139906 1.04584 0.3125V14.1025H0.859375C0.686781 14.1025 0.546875 14.2424 0.546875 14.415V15.6875C0.546875 15.8601 0.686781 16 0.859375 16H15.1406C15.3132 16 15.4531 15.8601 15.4531 15.6875V14.415C15.4531 14.2424 15.3132 14.1025 15.1406 14.1025ZM10.5264 3.93519H14.3292V14.1025H10.5264V3.93519ZM1.67084 0.625H9.90141V3.62269V14.1025H6.09859V3.12828C6.09859 2.95569 5.95869 2.81578 5.78609 2.81578C5.6135 2.81578 5.47359 2.95569 5.47359 3.12828V14.1025H1.67084V0.625ZM14.8281 15.375H1.17188V14.7275H10.2139H14.8281V15.375Z" fill="#14451F" />
	</symbol>
	<symbol id="shops" fill="none">
		<rect x="0.264984" y="0.230225" width="39.4385" height="39.4385" rx="4.19558" fill="#4285F4" />
		<g clip-path="url(#clip0)">
			<rect x="9.81281" y="8.50108" width="21.1781" height="4.55558" stroke="white" stroke-width="0.559035" />
			<path d="M12.9135 18.0214C12.9135 19.4407 11.7629 20.5913 10.3435 20.5913C8.92414 20.5913 7.77353 19.4407 7.77353 18.0214" stroke="white" stroke-width="0.698794" />
			<path d="M17.9646 18.0214C17.9646 19.4407 16.814 20.5913 15.3946 20.5913C13.9753 20.5913 12.8246 19.4407 12.8246 18.0214" stroke="white" stroke-width="0.698794" />
			<path d="M23.0159 18.0214C23.0159 19.4407 21.8653 20.5913 20.446 20.5913C19.0266 20.5913 17.876 19.4407 17.876 18.0214" stroke="white" stroke-width="0.698794" />
			<path d="M28.0675 18.0214C28.0675 19.4407 26.9169 20.5913 25.4976 20.5913C24.0782 20.5913 22.9276 19.4407 22.9276 18.0214" stroke="white" stroke-width="0.698794" />
			<path d="M33.1187 18.0214C33.1187 19.4407 31.9681 20.5913 30.5487 20.5913C29.1293 20.5913 27.9787 19.4407 27.9787 18.0214" stroke="white" stroke-width="0.698794" />
			<path d="M9.63428 20.4122V31.6669H31.2575V20.4122" stroke="white" stroke-width="0.698794" />
			<path d="M27.2699 31.4898V23.9572H23.1047V31.4898" stroke="white" stroke-width="0.698794" />
			<path d="M9.63448 28.2109L18.7623 28.2109L18.7623 23.9572L9.63448 23.9572" stroke="white" stroke-width="0.698794" />
			<path d="M17.1229 12.3942H9.63451L7.72919 17.7113H16.3253M17.1229 12.3942L16.3253 17.7113M17.1229 12.3942H23.5921M16.3253 17.7113H24.7441M24.7441 17.7113H33.0301L30.9475 12.3942H23.5921M24.7441 17.7113L23.5921 12.3942" stroke="white" stroke-width="0.698794" />
			<path d="M15.129 24.0033L13.5781 28.39" stroke="white" stroke-width="0.698794" />
		</g>
		<defs>
			<clipPath id="clip0">
				<rect width="26.8517" height="26.8517" fill="white" transform="translate(6.97592 6.94312)" />
			</clipPath>
		</defs>
	</symbol>
	<symbol id="cars" fill="none">
		<rect x="0.264984" y="0.280762" width="39.4385" height="39.4385" rx="4.19558" fill="#4285F4" />
		<g clip-path="url(#clip0)">
			<path d="M20.4018 6.99365C17.7464 6.99365 15.1506 7.78107 12.9428 9.25632C10.7349 10.7316 9.01405 12.8284 7.99788 15.2817C6.98171 17.7349 6.71583 20.4344 7.23387 23.0388C7.75191 25.6431 9.0306 28.0354 10.9082 29.913C12.7859 31.7907 15.1781 33.0694 17.7825 33.5874C20.3869 34.1055 23.0864 33.8396 25.5396 32.8234C27.9929 31.8072 30.0897 30.0864 31.565 27.8785C33.0402 25.6707 33.8276 23.0749 33.8276 20.4195C33.8236 16.86 32.4078 13.4474 29.8909 10.9304C27.3739 8.41344 23.9613 6.99765 20.4018 6.99365V6.99365ZM20.4018 31.6077C18.1889 31.6077 16.0258 30.9516 14.1859 29.7222C12.346 28.4928 10.912 26.7455 10.0652 24.7011C9.21838 22.6567 8.99682 20.4071 9.42852 18.2368C9.86022 16.0665 10.9258 14.073 12.4905 12.5083C14.0552 10.9436 16.0487 9.87798 18.2191 9.44628C20.3894 9.01458 22.6389 9.23614 24.6833 10.083C26.7277 10.9298 28.4751 12.3638 29.7044 14.2037C30.9338 16.0436 31.59 18.2067 31.59 20.4195C31.5866 23.3858 30.4068 26.2296 28.3093 28.3271C26.2118 30.4245 23.368 31.6044 20.4018 31.6077Z" fill="white" />
			<path d="M22.08 14.8258H18.1641C17.8674 14.8258 17.5828 14.9437 17.373 15.1535C17.1632 15.3633 17.0453 15.6479 17.0453 15.9446V27.1329H19.2829V22.6576H22.08C23.1185 22.6576 24.1146 22.245 24.8489 21.5106C25.5833 20.7763 25.9959 19.7802 25.9959 18.7417C25.9959 17.7031 25.5833 16.7071 24.8489 15.9727C24.1146 15.2384 23.1185 14.8258 22.08 14.8258ZM22.08 20.4199H19.2829V17.0635H22.08C22.5251 17.0635 22.9519 17.2403 23.2667 17.555C23.5814 17.8697 23.7582 18.2966 23.7582 18.7417C23.7582 19.1868 23.5814 19.6136 23.2667 19.9284C22.9519 20.2431 22.5251 20.4199 22.08 20.4199Z" fill="white" />
		</g>
		<defs>
			<clipPath id="clip0">
				<rect width="26.8517" height="26.8517" fill="white" transform="translate(6.97592 6.99365)" />
			</clipPath>
		</defs>
	</symbol>
	<symbol id="doors" fill="none">
		<rect x="0.74762" y="0.331177" width="39.4385" height="39.4385" rx="4.19558" fill="#4285F4" />
		<g clip-path="url(#clip0)">
			<path d="M29.2848 7.04419H12.4921C12.2025 7.04419 11.9677 7.27898 11.9677 7.56864V33.3715C11.9677 33.6611 12.2025 33.8959 12.4921 33.8959H29.2848C29.5745 33.8959 29.8093 33.6611 29.8093 33.3715V7.56864C29.8093 7.27898 29.5745 7.04419 29.2848 7.04419ZM28.7604 32.847H13.0166V23.0028H13.7851V31.5385C13.7851 31.8281 14.0198 32.063 14.3095 32.063H16.3594H20.8885H25.4176H27.4674C27.7571 32.063 27.9919 31.8281 27.9919 31.5385V9.40158C27.9919 9.11198 27.7571 8.87714 27.4674 8.87714H14.3095C14.0198 8.87714 13.7851 9.11198 13.7851 9.40158V21.9539H13.0166V8.09309H28.7604V32.847ZM25.4176 24.9304H20.8885H16.3594C16.0698 24.9304 15.835 25.1653 15.835 25.4549V31.0141H14.834V23.0028H23.764C24.0536 23.0028 24.2884 22.7679 24.2884 22.4783C24.2884 22.1887 24.0536 21.9539 23.7639 21.9539H14.8339V9.92603H26.943V31.0141H25.9421V25.4549C25.9421 25.1653 25.7073 24.9304 25.4176 24.9304ZM24.8931 25.9793V31.0141H21.4129V25.9793H24.8931ZM20.364 25.9793V31.0141H16.8839V25.9793H20.364Z" fill="white" />
			<path d="M26.0428 22.3761C26.0365 22.3426 26.026 22.3095 26.0129 22.2781C25.9998 22.2461 25.9836 22.2157 25.9647 22.1874C25.9458 22.1585 25.9238 22.1317 25.8997 22.1076C25.8755 22.0835 25.8488 22.0615 25.8199 22.0425C25.7916 22.0237 25.7612 22.0074 25.7292 21.9943C25.6977 21.9812 25.6647 21.9712 25.6311 21.9644C25.4607 21.9298 25.2798 21.9859 25.1581 22.1076C25.134 22.1317 25.1119 22.1584 25.0931 22.1873C25.0742 22.2156 25.0579 22.246 25.0448 22.278C25.0317 22.3095 25.0212 22.3425 25.0149 22.3761C25.0081 22.4096 25.0044 22.4443 25.0044 22.4783C25.0044 22.6168 25.0605 22.7516 25.1581 22.8491C25.2556 22.9472 25.3909 23.0028 25.5289 23.0028C25.563 23.0028 25.5976 22.9996 25.6311 22.9928C25.6647 22.986 25.6977 22.9761 25.7292 22.963C25.7612 22.9499 25.7916 22.9336 25.8199 22.9147C25.8488 22.8953 25.8755 22.8733 25.8997 22.8491C25.9972 22.7516 26.0533 22.6168 26.0533 22.4784C26.0533 22.4443 26.0496 22.4096 26.0428 22.3761Z" fill="white" />
			<path d="M25.4173 10.8842H16.3592C16.0695 10.8842 15.8347 11.119 15.8347 11.4086V20.4668C15.8347 20.7564 16.0695 20.9913 16.3592 20.9913H25.4174C25.707 20.9912 25.9418 20.7564 25.9418 20.4668V11.4086C25.9418 11.119 25.707 10.8842 25.4173 10.8842ZM20.3638 19.9423H16.8836V16.4621H20.3638V19.9423ZM20.3638 15.4132H16.8836V11.9331H20.3638V15.4132ZM24.8929 19.9423H21.4127V16.4621H24.8929V19.9423ZM24.8929 15.4132H21.4127V11.9331H24.8929V15.4132Z" fill="white" />
		</g>
		<defs>
			<clipPath id="clip0">
				<rect width="26.8517" height="26.8517" fill="white" transform="translate(7.46246 7.04419)" />
			</clipPath>
		</defs>
	</symbol>
	<symbol id="phone-blue" fill="none">
		<path d="M5.54205 1.54258L7.6436 3.64018C8.4571 4.45215 8.4571 5.39945 7.6436 6.14376L6.08439 7.70004C6.7623 10.7449 9.2706 13.1809 12.2534 13.8575L13.8127 12.3012C14.6262 11.5569 15.5752 11.5569 16.321 12.3012L18.4225 14.4665C19.1682 15.1431 19.1682 16.0904 18.5581 16.8347L16.7955 19C7.30464 19 1 12.7072 1 3.23419L3.16934 1.47492C3.91505 0.798273 4.86413 0.865938 5.54205 1.54258Z" stroke="#4285F4" stroke-width="1.29091" />
	</symbol>
	<symbol id="address" fill="none">
		<path d="M17 9C17 13.4183 9 23.5 9 23.5C9 23.5 1 13.4183 1 9C1 4.58172 4.58172 1 9 1C13.4183 1 17 4.58172 17 9Z" stroke="#4285F4" stroke-width="2" />
		<circle cx="9" cy="9" r="3.5" stroke="#4285F4" />
	</symbol>
	<symbol id="phone-white" fill="none">
		<path d="M6.31234 2.42403L8.77029 4.87736C9.72175 5.82703 9.72175 6.93499 8.77029 7.80552L6.94665 9.62574C7.73954 13.187 10.6732 16.036 14.1619 16.8274L15.9856 15.0072C16.937 14.1367 18.0471 14.1367 18.9192 15.0072L21.3772 17.5397C22.2494 18.3311 22.2494 19.4391 21.5358 20.3096L19.4743 22.8421C8.37385 22.8421 1 15.4821 1 4.40252L3.53724 2.34489C4.40941 1.55349 5.51945 1.63263 6.31234 2.42403Z" stroke="white" stroke-width="1.69856" />
	</symbol>
	<symbol id="mail" fill="none">
		<rect x="1" y="1" width="16.0013" height="12.001" rx="1.55556" stroke="#4285F4" stroke-width="1.55556" />
		<path d="M3.85794 4.33337L8.25161 7.19591C8.77793 7.53882 9.45885 7.53151 9.97769 7.17738L14.1445 4.33337" stroke="#4285F4" stroke-width="1.55556" stroke-linecap="round" />
	</symbol>
	<symbol id="document" fill="none">
		<g clip-path="url(#clip0)">
			<path d="M19.9776 4.27919L15.9345 0.236093C15.8592 0.160617 15.7696 0.100966 15.6709 0.0606459C15.5734 0.0207997 15.469 0.000189519 15.3637 0H4.85168C3.51193 0 2.42584 1.08608 2.42584 2.42584V20.2153C2.42584 21.5551 3.51193 22.6412 4.85168 22.6412H17.7895C19.1292 22.6412 20.2153 21.5551 20.2153 20.2153V4.85167C20.2142 4.63704 20.1288 4.43146 19.9776 4.27919ZM16.1722 2.76062L17.4547 4.04309H16.1722V2.76062ZM18.5981 20.2153C18.5981 20.6619 18.236 21.024 17.7894 21.024H4.85168C4.40508 21.024 4.04305 20.6619 4.04305 20.2153V2.42584C4.04305 1.97924 4.40508 1.61721 4.85168 1.61721H14.555V4.85167C14.555 5.29827 14.9171 5.6603 15.3637 5.6603H18.5981V20.2153H18.5981Z" fill="#4285F4" />
		</g>
		<defs>
			<clipPath id="clip0">
				<rect width="22.6412" height="22.6412" fill="white" />
			</clipPath>
		</defs>
	</symbol>
    <symbol id="close" fill="none" >
<rect x="14.1421" width="3" height="20" rx="1.5" transform="rotate(45 14.1421 0)" fill="white"/>
<rect x="16.2637" y="14.1421" width="3" height="20" rx="1.5" transform="rotate(135 16.2637 14.1421)" fill="white"/>
</symbol>

</svg>
