<svg xmlns="http://www.w3.org/2000/svg">
	<symbol id="phone-painted-green">
		<path d="M4.03738 0.482295L5.90542 2.34683C6.62853 3.06858 6.62853 3.91063 5.90542 4.57223L4.51945 5.95559C5.12205 8.66217 7.35165 10.8274 10.0031 11.4289L11.389 10.0455C12.1121 9.38392 12.9558 9.38392 13.6186 10.0455L15.4867 11.9702C16.1495 12.5717 16.1495 13.4137 15.6072 14.0753L14.0404 16C5.60412 16 0 10.4064 0 1.98595L1.9283 0.422149C2.59115 -0.179313 3.43479 -0.119166 4.03738 0.482295Z" fill="#14451F" />
	</symbol>
	<symbol id="select-btn" fill="none">
		<path d="M15.1406 14.1025H14.9542V3.62269C14.9542 3.45009 14.8142 3.31019 14.6417 3.31019H10.5264V0.3125C10.5264 0.139906 10.3865 0 10.2139 0H1.35834C1.18575 0 1.04584 0.139906 1.04584 0.3125V14.1025H0.859375C0.686781 14.1025 0.546875 14.2424 0.546875 14.415V15.6875C0.546875 15.8601 0.686781 16 0.859375 16H15.1406C15.3132 16 15.4531 15.8601 15.4531 15.6875V14.415C15.4531 14.2424 15.3132 14.1025 15.1406 14.1025ZM10.5264 3.93519H14.3292V14.1025H10.5264V3.93519ZM1.67084 0.625H9.90141V3.62269V14.1025H6.09859V3.12828C6.09859 2.95569 5.95869 2.81578 5.78609 2.81578C5.6135 2.81578 5.47359 2.95569 5.47359 3.12828V14.1025H1.67084V0.625ZM14.8281 15.375H1.17188V14.7275H10.2139H14.8281V15.375Z" fill="#14451F" />
	</symbol>
	<symbol id="humburger">
		<rect width="22" height="2" rx="1" fill="white" />
		<rect y="5" width="22" height="2" rx="1" fill="white" />
		<rect x="5" y="10" width="17" height="2" rx="1" fill="white" />
	</symbol>
	<symbol id="phone-blue" fill="none">
		<path d="M5.54205 1.54258L7.6436 3.64018C8.4571 4.45215 8.4571 5.39945 7.6436 6.14376L6.08439 7.70004C6.7623 10.7449 9.2706 13.1809 12.2534 13.8575L13.8127 12.3012C14.6262 11.5569 15.5752 11.5569 16.321 12.3012L18.4225 14.4665C19.1682 15.1431 19.1682 16.0904 18.5581 16.8347L16.7955 19C7.30464 19 1 12.7072 1 3.23419L3.16934 1.47492C3.91505 0.798273 4.86413 0.865938 5.54205 1.54258Z" stroke="#4285F4" stroke-width="1.29091" />
	</symbol>
	<symbol id="address" fill="none">
		<path d="M17 9C17 13.4183 9 23.5 9 23.5C9 23.5 1 13.4183 1 9C1 4.58172 4.58172 1 9 1C13.4183 1 17 4.58172 17 9Z" stroke="#4285F4" stroke-width="2" />
		<circle cx="9" cy="9" r="3.5" stroke="#4285F4" />
	</symbol>
	<symbol id="phone-white" fill="none">
		<path d="M6.31234 2.42403L8.77029 4.87736C9.72175 5.82703 9.72175 6.93499 8.77029 7.80552L6.94665 9.62574C7.73954 13.187 10.6732 16.036 14.1619 16.8274L15.9856 15.0072C16.937 14.1367 18.0471 14.1367 18.9192 15.0072L21.3772 17.5397C22.2494 18.3311 22.2494 19.4391 21.5358 20.3096L19.4743 22.8421C8.37385 22.8421 1 15.4821 1 4.40252L3.53724 2.34489C4.40941 1.55349 5.51945 1.63263 6.31234 2.42403Z" stroke="white" stroke-width="1.69856" />
	</symbol>
	<symbol id="mail" fill="none">
		<rect x="1" y="1" width="16.0013" height="12.001" rx="1.55556" stroke="#4285F4" stroke-width="1.55556" />
		<path d="M3.85794 4.33337L8.25161 7.19591C8.77793 7.53882 9.45885 7.53151 9.97769 7.17738L14.1445 4.33337" stroke="#4285F4" stroke-width="1.55556" stroke-linecap="round" />
	</symbol>
	<symbol id="document" fill="none">
		<g clip-path="url(#clip0)">
			<path d="M19.9776 4.27919L15.9345 0.236093C15.8592 0.160617 15.7696 0.100966 15.6709 0.0606459C15.5734 0.0207997 15.469 0.000189519 15.3637 0H4.85168C3.51193 0 2.42584 1.08608 2.42584 2.42584V20.2153C2.42584 21.5551 3.51193 22.6412 4.85168 22.6412H17.7895C19.1292 22.6412 20.2153 21.5551 20.2153 20.2153V4.85167C20.2142 4.63704 20.1288 4.43146 19.9776 4.27919ZM16.1722 2.76062L17.4547 4.04309H16.1722V2.76062ZM18.5981 20.2153C18.5981 20.6619 18.236 21.024 17.7894 21.024H4.85168C4.40508 21.024 4.04305 20.6619 4.04305 20.2153V2.42584C4.04305 1.97924 4.40508 1.61721 4.85168 1.61721H14.555V4.85167C14.555 5.29827 14.9171 5.6603 15.3637 5.6603H18.5981V20.2153H18.5981Z" fill="#4285F4" />
		</g>
		<defs>
			<clipPath id="clip0">
				<rect width="22.6412" height="22.6412" fill="white" />
			</clipPath>
		</defs>
	</symbol>
</svg>
